<?xml version="1.0" encoding="UTF-8" standalone="no"?><!DOCTYPE svg PUBLIC "-//W3C//DTD SVG 1.1//EN" "http://www.w3.org/Graphics/SVG/1.1/DTD/svg11.dtd"><svg width="100%" height="100%" viewBox="0 0 589 219" version="1.1" xmlns="http://www.w3.org/2000/svg" xmlns:xlink="http://www.w3.org/1999/xlink" xml:space="preserve" xmlns:serif="http://www.serif.com/" style="fill-rule:evenodd;clip-rule:evenodd;stroke-linejoin:round;stroke-miterlimit:2;"><g><path d="M206.884,217.938l-0,0.715l-60.759,0l0,-0.137l-146.124,0l0,-54.391l16.617,0c8.27,0 14.949,-0.159 20.039,-0.477c5.089,-0.318 9.701,-0.954 13.836,-1.908l7.634,-1.908c12.723,-3.817 23.06,-11.053 31.012,-21.709c7.952,-10.655 11.928,-22.822 11.928,-36.499c0,-17.812 -5.01,-29.899 -15.029,-36.26c-10.019,-6.361 -28.865,-9.542 -56.538,-9.542l-29.499,0l0,-55.822l42.858,0c18.766,0 32.603,0.477 41.509,1.431c8.906,0.954 16.858,3.181 23.855,6.68c1.908,0.954 3.817,1.988 5.725,3.101c1.908,1.113 3.976,2.306 6.202,3.578c10.178,6.043 18.13,14.87 23.855,26.48c5.725,11.61 8.588,24.253 8.588,37.93c0,25.128 -5.884,44.451 -17.653,57.969c-11.769,13.518 -29.104,24.253 -52.005,32.205c5.407,-0.318 10.735,-0.557 15.983,-0.716c5.248,-0.159 10.576,-0.398 15.983,-0.716c5.089,-0.318 10.337,-0.557 15.745,-0.716c1.345,-0.04 2.69,-0.074 4.035,-0.104c1.42,4.315 3.199,8.451 5.337,12.407c6.361,11.769 15.268,20.675 26.718,26.718c2.545,1.272 5.01,2.465 7.395,3.578c2.386,1.113 4.692,2.147 6.918,3.101c6.361,2.545 13.757,4.135 22.186,4.771c1.132,0.085 2.348,0.165 3.649,0.239Z" style="fill:#4a3334;"/><g><path d="M560.932,1.267l-330.637,-0l0,53.913l86.357,0c3.499,0 6.759,-0.08 9.781,-0.239c3.022,-0.159 5.964,-0.239 8.827,-0.239c3.181,0 6.282,-0.08 9.304,-0.239c3.022,-0.159 6.123,-0.239 9.304,-0.239c-16.858,8.906 -30.137,20.357 -39.839,34.352c-9.701,13.995 -14.552,30.694 -14.552,50.097c0,14.949 3.181,28.309 9.542,40.077c6.361,11.769 15.268,20.675 26.718,26.718c2.545,1.272 5.01,2.465 7.395,3.578c2.386,1.113 4.692,2.147 6.918,3.101c6.361,2.545 13.757,4.135 22.186,4.771c8.429,0.636 21.549,0.954 39.362,0.954l149.335,0l0,-53.913l-141.702,0c-26.4,0 -44.371,-3.419 -53.913,-10.258c-9.542,-6.839 -14.313,-19.8 -14.313,-38.884c0,-9.86 2.067,-18.846 6.202,-26.957c4.135,-8.111 10.019,-14.87 17.653,-20.277c1.59,-0.954 3.022,-1.908 4.294,-2.863c1.272,-0.954 2.704,-1.749 4.294,-2.386c5.407,-2.863 11.371,-4.771 17.892,-5.725c6.521,-0.954 15.665,-1.431 27.434,-1.431l132.159,0l0,-53.913Z" style="fill:#4a3334;fill-rule:nonzero;"/><path d="M492.124,55.653l90.759,0l0,-54.747l-90.759,0l0,54.747Z" style="fill:#4a3334;"/><path d="M492.124,55.653l96.759,0l0,-54.747l-96.759,0l0,54.747Z" style="fill:#4a3334;"/><path d="M215.206,55.653c-1.337,-4.604 -3.071,-9.065 -5.2,-13.383c-5.725,-11.61 -13.677,-20.436 -23.855,-26.48c-2.227,-1.272 -4.294,-2.465 -6.202,-3.578c-1.908,-1.113 -3.817,-2.147 -5.725,-3.101c-6.998,-3.499 -14.949,-5.725 -23.855,-6.68c-2.132,-0.228 -4.546,-0.429 -7.242,-0.603l0,-0.922l139.759,0l0,54.747l-67.678,0Z" style="fill:#4a3334;"/><path d="M498.124,217.653l90.759,0l0,-53.747l-90.759,0l0,53.747Z" style="fill:#4a3334;"/></g></g></svg>