<?xml version="1.0" encoding="UTF-8" standalone="no"?><!DOCTYPE svg PUBLIC "-//W3C//DTD SVG 1.1//EN" "http://www.w3.org/Graphics/SVG/1.1/DTD/svg11.dtd"><svg width="100%" height="100%" viewBox="0 0 219 477" version="1.1" xmlns="http://www.w3.org/2000/svg" xmlns:xlink="http://www.w3.org/1999/xlink" xml:space="preserve" xmlns:serif="http://www.serif.com/" style="fill-rule:evenodd;clip-rule:evenodd;stroke-linejoin:round;stroke-miterlimit:2;"><rect x="0" y="146.124" width="51.747" height="42.759" style="fill:#4a3334;"/><path d="M0.137,0l0,146.868l51.528,0c0,-5.407 -0.08,-10.814 -0.239,-16.222c-0.159,-5.407 -0.398,-10.655 -0.716,-15.745c-0.318,-5.407 -0.557,-10.735 -0.716,-15.983c-0.159,-5.248 -0.398,-10.576 -0.716,-15.983c7.952,22.901 18.687,40.236 32.205,52.005c13.518,11.769 32.841,17.653 57.969,17.653c13.677,0 26.321,-2.863 37.93,-8.588c11.61,-5.725 20.436,-13.677 26.48,-23.855c1.272,-2.227 2.465,-4.294 3.578,-6.202c1.113,-1.908 2.147,-3.817 3.101,-5.725c3.499,-6.998 5.725,-14.949 6.68,-23.855c0.954,-8.906 1.431,-22.742 1.431,-41.509l0,-42.858l-55.822,0l0,29.499c0,27.672 -3.181,46.518 -9.542,56.538c-6.361,10.019 -18.448,15.029 -36.26,15.029c-13.677,0 -25.843,-3.976 -36.499,-11.928c-10.655,-7.952 -17.892,-18.289 -21.709,-31.012l-1.908,-7.634c-0.954,-4.135 -1.59,-8.747 -1.908,-13.836c-0.318,-5.089 -0.477,-11.769 -0.477,-20.039l0,-16.617l-54.391,0Z" style="fill:#4a3334;"/><path d="M0.778,477l0,-65.404c0,-17.812 0.318,-30.933 0.954,-39.362c0.636,-8.429 2.227,-15.824 4.771,-22.186c0.954,-2.227 1.988,-4.533 3.101,-6.918c1.113,-2.386 2.306,-4.851 3.578,-7.395c6.043,-11.451 14.949,-20.357 26.718,-26.718c11.769,-6.361 25.128,-9.542 40.077,-9.542c19.402,0 36.101,4.851 50.097,14.552c13.995,9.701 25.446,22.981 34.352,39.839c0,-3.181 -0.08,-6.282 -0.239,-9.304c-0.159,-3.022 -0.239,-6.123 -0.239,-9.304c0,-2.863 -0.08,-5.805 -0.239,-8.827c-0.159,-3.022 -0.239,-6.282 -0.239,-9.781l0,-33.768l-0.473,0l0,-96.759l54.747,0l0,96.759l-0.361,0l0,194.116l-53.913,0l0,-48.228c0,-11.769 -0.477,-20.913 -1.431,-27.434c-0.954,-6.521 -2.863,-12.484 -5.725,-17.892c-0.636,-1.59 -1.431,-3.022 -2.386,-4.294c-0.954,-1.272 -1.908,-2.704 -2.863,-4.294c-5.407,-7.634 -12.166,-13.518 -20.277,-17.653c-8.111,-4.135 -17.096,-6.202 -26.957,-6.202c-19.084,0 -32.046,4.771 -38.884,14.313c-6.839,9.542 -10.258,27.513 -10.258,53.913l0,57.77l-53.913,0Z" style="fill:#4a3334;"/></svg>