<?xml version="1.0" encoding="UTF-8" standalone="no"?><!DOCTYPE svg PUBLIC "-//W3C//DTD SVG 1.1//EN" "http://www.w3.org/Graphics/SVG/1.1/DTD/svg11.dtd"><svg width="100%" height="100%" viewBox="0 0 761 1035" version="1.1" xmlns="http://www.w3.org/2000/svg" xmlns:xlink="http://www.w3.org/1999/xlink" xml:space="preserve" xmlns:serif="http://www.serif.com/" style="fill-rule:evenodd;clip-rule:evenodd;stroke-linejoin:round;stroke-miterlimit:2;"><path d="M0.046,484.154l325.094,0l0,-114.058c-11.969,0 -23.938,0.176 -35.907,0.528c-11.969,0.352 -23.586,0.88 -34.851,1.584c-11.969,0.704 -23.762,1.232 -35.379,1.584c-11.617,0.352 -23.41,0.88 -35.379,1.584c50.692,-17.601 89.064,-41.364 115.114,-71.286c26.05,-29.923 39.075,-72.694 39.075,-128.315c0,-30.275 -6.337,-58.261 -19.01,-83.959c-12.673,-25.698 -30.275,-45.236 -52.804,-58.613c-4.928,-2.816 -9.505,-5.456 -13.729,-7.921c-4.224,-2.464 -8.449,-4.752 -12.673,-6.865c-15.489,-7.745 -33.091,-12.673 -52.804,-14.785c-19.714,-2.112 -50.34,-3.168 -91.88,-3.168l-94.867,0l0,123.563l65.296,0c61.253,0 102.969,7.041 125.147,21.122c22.178,14.081 33.267,40.835 33.267,80.263c0,30.275 -8.801,57.205 -26.402,80.791c-17.601,23.586 -40.483,39.603 -68.646,48.052l-16.897,4.224c-9.153,2.112 -19.362,3.52 -30.627,4.224c-11.265,0.704 -26.05,1.056 -44.356,1.056l-36.782,0l0,120.394Z"/><path d="M582.035,0c58.129,2.653 102.468,25.037 133.017,67.153c30.549,42.116 45.824,101.31 45.824,177.583c0,78.263 -15.699,138.286 -47.097,180.071c-31.398,41.784 -76.586,62.677 -135.563,62.677c-56.856,0 -100.028,-20.561 -129.517,-61.682c-29.489,-41.121 -44.233,-101.476 -44.233,-181.065c0,-90.201 16.335,-153.541 49.006,-190.019c32.671,-36.478 75.737,-54.718 129.199,-54.718l-0.636,0Zm1.909,103.466c-30.125,0 -56.113,9.12 -77.965,27.359c-21.851,18.239 -32.777,54.883 -32.777,109.933c0,48.417 9.441,84.398 28.322,107.943c18.881,23.545 47.415,35.318 85.602,35.318c36.065,0 64.069,-11.938 84.011,-35.815c19.942,-23.877 29.913,-58.034 29.913,-102.471c0,-45.764 -9.759,-80.584 -29.277,-104.461c-19.518,-23.877 -48.582,-36.478 -87.193,-37.805l-0.636,0Z" style="fill-rule:nonzero;"/><path d="M760.349,554.82l-726.769,0l0,119.338l231.243,0c9.369,0 18.099,-0.176 26.19,-0.528c8.091,-0.352 15.97,-0.528 23.635,-0.528c8.517,0 16.822,-0.176 24.913,-0.528c8.091,-0.352 16.396,-0.528 24.913,-0.528c-45.141,19.714 -80.701,45.06 -106.678,76.038c-25.978,30.979 -38.966,67.942 -38.966,110.889c0,33.091 8.517,62.661 25.552,88.712c17.034,26.05 40.883,45.764 71.545,59.141c6.814,2.816 13.415,5.456 19.803,7.921c6.388,2.464 12.563,4.752 18.525,6.865c17.034,5.632 36.837,9.153 59.408,10.561c22.571,1.408 57.704,2.112 105.401,2.112l241.287,0l0,-119.338l-220.846,0c-70.693,0 -118.815,-7.569 -144.367,-22.706c-25.552,-15.137 -38.328,-43.828 -38.328,-86.071c0,-21.826 5.536,-41.716 16.609,-59.669c11.072,-17.954 26.829,-32.915 47.271,-44.884c4.259,-2.112 8.091,-4.224 11.498,-6.337c3.407,-2.112 7.24,-3.872 11.498,-5.28c14.479,-6.337 30.449,-10.561 47.909,-12.673c17.46,-2.112 41.947,-3.168 73.461,-3.168l195.294,0l0,-119.338Z"/><path d="M0,675.204l59.232,0l0,-121.184l-59.232,0l0,121.184Z"/></svg>