<?xml version="1.0" encoding="UTF-8" standalone="no"?><!DOCTYPE svg PUBLIC "-//W3C//DTD SVG 1.1//EN" "http://www.w3.org/Graphics/SVG/1.1/DTD/svg11.dtd"><svg width="100%" height="100%" viewBox="0 0 240 203" version="1.1" xmlns="http://www.w3.org/2000/svg" xmlns:xlink="http://www.w3.org/1999/xlink" xml:space="preserve" xmlns:serif="http://www.serif.com/" style="fill-rule:evenodd;clip-rule:evenodd;stroke-linejoin:round;stroke-miterlimit:2;"><g><path d="M239.017,87.157l-174.425,0l0,28.641l55.498,0c2.249,0 4.344,-0.042 6.286,-0.127c1.942,-0.084 3.833,-0.127 5.672,-0.127c2.044,0 4.037,-0.042 5.979,-0.127c1.942,-0.084 3.935,-0.127 5.979,-0.127c-10.834,4.731 -19.368,10.814 -25.603,18.249c-6.235,7.435 -9.352,16.306 -9.352,26.613c0,7.942 2.044,15.039 6.132,21.291c4.088,6.252 9.812,10.983 17.171,14.194c1.635,0.676 3.22,1.31 4.753,1.901c1.533,0.591 3.015,1.141 4.446,1.648c4.088,1.352 8.841,2.197 14.258,2.535c5.417,0.338 13.849,0.507 25.296,0.507l57.909,0l0,-28.641l-53.003,0c-16.966,0 -28.516,-1.816 -34.648,-5.449c-6.132,-3.633 -9.199,-10.519 -9.199,-20.657c0,-5.238 1.329,-10.012 3.986,-14.321c2.657,-4.309 6.439,-7.9 11.345,-10.772c1.022,-0.507 1.942,-1.014 2.76,-1.521c0.818,-0.507 1.738,-0.929 2.76,-1.267c3.475,-1.521 7.308,-2.535 11.498,-3.042c4.19,-0.507 10.067,-0.76 17.631,-0.76l46.871,0l0,-28.641Z"/><path d="M56.533,116.049l14.216,0l0,-29.084l-14.216,0l0,29.084Z"/><path d="M0,115.588l176.437,0l0,-28.77l-46.083,0c-1.867,0 -3.607,0.042 -5.219,0.127c-1.612,0.085 -3.182,0.127 -4.71,0.127c-1.697,0 -3.352,0.042 -4.965,0.127c-1.612,0.085 -3.267,0.127 -4.965,0.127c8.996,-4.753 16.082,-10.863 21.259,-18.331c5.177,-7.468 7.765,-16.379 7.765,-26.733c0,-7.977 -1.697,-15.106 -5.092,-21.386c-3.395,-6.28 -8.147,-11.033 -14.258,-14.258c-1.358,-0.679 -2.673,-1.315 -3.946,-1.909c-1.273,-0.594 -2.504,-1.146 -3.692,-1.655c-3.395,-1.358 -7.341,-2.207 -11.839,-2.546c-4.498,-0.339 -11.499,-0.509 -21.004,-0.509l-79.69,0l0,28.77l75.616,0c14.088,-0 23.678,1.825 28.77,5.474c5.092,3.649 7.638,10.566 7.638,20.75c0,5.262 -1.103,10.057 -3.31,14.385c-2.207,4.328 -5.347,7.935 -9.42,10.82c-0.849,0.509 -1.612,1.018 -2.291,1.528c-0.679,0.509 -1.443,0.934 -2.291,1.273c-2.885,1.528 -6.068,2.546 -9.547,3.055c-3.48,0.509 -8.359,0.764 -14.639,0.764l-70.524,0l0,28.77Z"/><rect x="173.653" y="86.72" width="66.24" height="28.8"/></g></svg>