<svg version="1.2" xmlns="http://www.w3.org/2000/svg" viewBox="0 0 1280 720" width="1280" height="720">
	<defs>
		<clipPath clipPathUnits="userSpaceOnUse" id="cp1">
			<path d="m980.43 448.69l-50.93-7.62-43.78 27.1-50.93-7.62-43.78 27.11-50.93-7.62 32.22 156.59 50.93 7.62 43.78-27.11 50.93 7.62 43.78-27.11 50.93 7.62 43.78-27.1-32.22-156.59z"/>
		</clipPath>
		<clipPath clipPathUnits="userSpaceOnUse" id="cp2">
			<path d="m627.95 649.4c-142.18 0-257.11-114.93-257.11-257.11 0-142.18 114.93-257.11 257.11-257.11 142.19 0 257.12 114.93 257.12 257.11 0 142.18-114.93 257.11-257.12 257.11z"/>
		</clipPath>
	</defs>
	<style>
		tspan { white-space:pre } 
		.s0 { fill: #684a4c } 
		.s1 { mix-blend-mode: multiply;fill: #e1e9ef } 
		.s2 { opacity: .5;fill: #8c8787 } 
		.s3 { opacity: .5;mix-blend-mode: soft-light;fill: #6a6566 } 
		.s4 { opacity: .5;fill: #6c5e5f } 
		.s5 { fill: #4a3334 } 
		.s6 { fill: #e1e9ef } 
		.s7 { mix-blend-mode: multiply;fill: #e1e8ef } 
		.s8 { opacity: .5;mix-blend-mode: soft-light;fill: #8c8787 } 
		.s9 { fill: #ffffff } 
		.s10 { fill: #4a3334;stroke: #f0a543;stroke-miterlimit:10;stroke-width: 2 } 
		.s11 { fill: none;stroke: #f0a543;stroke-miterlimit:10;stroke-width: 2 } 
		.t12 { font-size: 12px;fill: #f0a543;font-weight: 400;font-family: "Oswald-Medium", "Oswald" } 
		.s13 { fill: #343a3a } 
		.s14 { fill: #341d1e } 
		.s15 { mix-blend-mode: soft-light;fill: #e1efef } 
		.s16 { mix-blend-mode: multiply;fill: #341d1e } 
		.s17 { fill: #4f5656 } 
		.s18 { fill: #1d2121 } 
		.s19 { opacity: .1;fill: #4a3334;stroke: #5e6665;stroke-miterlimit:10 } 
		.s20 { fill: none;stroke: #5e6665;stroke-miterlimit:10 } 
		.s21 { opacity: .5;mix-blend-mode: multiply;fill: #9aa8a7 } 
		.s22 { fill: #eaf4f4 } 
		.s23 { fill: #ad9698 } 
		.s24 { fill: #f0a543 } 
		.s25 { fill: #dfd1b3 } 
		.s26 { fill: #5a4546 } 
		.s27 { fill: #817171 } 
		.s28 { mix-blend-mode: multiply;fill: #d2c7ae } 
		.s29 { mix-blend-mode: soft-light;fill: #d2c7ae } 
		.s30 { fill: #bfd8ef } 
		.s31 { fill: #474a4c } 
		.s32 { fill: #bfd8ef;stroke: #302d2c;stroke-miterlimit:10 } 
		.s33 { fill: #bfd8ef;stroke: #443f3e;stroke-miterlimit:10 } 
		.s34 { mix-blend-mode: soft-light;fill: #e4edf4 } 
		.s35 { mix-blend-mode: multiply;fill: #f0a543 } 
		.s36 { mix-blend-mode: multiply;fill: #dfe8ef } 
		.s37 { opacity: .5;mix-blend-mode: multiply;fill: #dfe8ef } 
		.s38 { fill: #dfe8ef } 
		.s39 { fill: none;stroke: #4a3334;stroke-miterlimit:10;stroke-width: 2;stroke-dasharray: 12 } 
		.s40 { fill: #8b6668 } 
		.s41 { fill: #bbae94 } 
	</style>
	<g id="Folder 1">
		<g id="SUNGLASSES">
			<path id="&lt;Path&gt;" class="s0" d="m476.24 120.5l-6.33-5.25c0.15-0.19 15.19-18 33.58-3.03l-5.2 6.38c-11.8-9.6-21.03 0.69-22.05 1.9z"/>
			<path id="&lt;Path&gt;" class="s0" d="m380.02 124.15l-14.24-1.96 1.44-10.48 14.24 1.96z"/>
			<path id="&lt;Path&gt;" class="s1" d="m380.02 124.15l-14.24-1.96 1.44-10.48 14.24 1.96z"/>
			<path id="&lt;Path&gt;" class="s2" d="m472.39 125.58c2.3 26.02-22.01 59.49-48.04 61.78-26.03 2.3-42.83-27.22-45.12-53.24-2.3-26.04 17.79-39.34 43.82-41.64 26.03-2.29 47.04 7.07 49.34 33.1z"/>
			<path id="&lt;Path&gt;" class="s3" d="m443.39 179.19c-26.03 2.3-42.82-27.22-45.12-53.25-1.27-14.37 4.3-24.85 13.91-31.75-20.5 4.72-34.92 17.66-32.95 39.93 2.29 26.02 19.09 55.54 45.12 53.24 7.28-0.64 14.43-3.72 20.9-8.4q-0.93 0.14-1.86 0.23z"/>
			<path id="&lt;Path&gt;" class="s4" d="m413.03 109.3c26.03-2.3 47.04 7.06 49.34 33.09 0.69 7.78-1.02 16.22-4.42 24.29 9.66-12.11 15.63-27.6 14.44-41.1-2.3-26.03-23.31-35.39-49.34-33.1-21.5 1.9-38.93 11.31-43.06 29.19 8.01-7.14 19.74-11.2 33.04-12.37z"/>
			<path id="&lt;Compound Path&gt;" fill-rule="evenodd" class="s5" d="m424.81 192.63c-13.68 1.21-26.52-5.22-36.16-18.1-8.04-10.76-13.4-25.32-14.69-39.95-2.33-26.36 16.3-44.51 48.62-47.37 32.15-2.83 52.73 11.33 55.08 37.9 1.21 13.7-4.19 29.95-14.45 43.46-10.7 14.08-24.7 22.85-38.4 24.06zm-1.29-94.88c-37.79 3.34-39.88 26.22-39.02 35.9 2.18 24.78 17.86 50.34 39.38 48.44 22.35-1.97 45.38-31.83 43.24-56.05-2.45-27.75-28.37-29.63-43.6-28.29z"/>
			<g id="&lt;Group&gt;" style="mix-blend-mode: multiply">
				<path id="&lt;Path&gt;" class="s6" d="m450.17 167.65c12.42-11.34 21.31-29.07 19.94-44.53-2.45-27.74-28.37-29.63-43.61-28.29-16.72 1.48-26.44 6.79-32.02 13.08 5.86-4.97 14.97-8.92 29.04-10.16 15.23-1.34 41.15 0.54 43.6 28.29 1.25 14.18-6.13 30.29-16.95 41.61z"/>
				<path id="&lt;Path&gt;" class="s6" d="m427.8 189.71c-13.68 1.21-26.53-5.22-36.16-18.1-8.05-10.76-13.41-25.32-14.69-39.95-1.1-12.36 2.42-22.91 9.79-30.93-9.39 8.3-14.01 19.93-12.78 33.85 1.29 14.63 6.65 29.19 14.69 39.95 9.64 12.88 22.48 19.31 36.16 18.1 11.3-0.99 22.79-7.14 32.47-17.16-9.01 8.29-19.33 13.35-29.48 14.24z"/>
			</g>
			<path id="&lt;Path&gt;" class="s0" d="m594.02 105.26l-3.26-10.06 13.67-4.43 3.26 10.06z"/>
			<path id="&lt;Path&gt;" class="s7" d="m594.02 105.26l-3.26-10.06 13.67-4.43 3.26 10.06z"/>
			<path id="&lt;Path&gt;" class="s2" d="m503.32 122.85c2.3 26.02 32.1 54.71 58.13 52.41 26.02-2.3 37.39-34.3 35.09-60.33-2.3-26.03-24.41-35.61-50.44-33.31-26.03 2.3-45.08 15.2-42.78 41.23z"/>
			<path id="&lt;Path&gt;" class="s8" d="m541.26 170.55c26.03-2.29 37.4-34.3 35.1-60.33-1.27-14.37-8.59-23.72-19.26-28.83 21.01 1.06 37.48 11.28 39.44 33.54 2.3 26.03-9.07 58.03-35.09 60.33-7.29 0.64-14.87-1.14-22.05-4.61q0.93-0.02 1.86-0.1z"/>
			<path id="&lt;Path&gt;" class="s4" d="m558.91 96.42c-26.03 2.3-45.08 15.2-42.78 41.23 0.69 7.77 3.84 15.78 8.61 23.14-11.63-10.24-20.23-24.44-21.42-37.94-2.3-26.03 16.75-38.93 42.78-41.23 21.5-1.9 40.31 4.32 47.51 21.19-9.13-5.63-21.4-7.56-34.7-6.39z"/>
			<path id="&lt;Compound Path&gt;" fill-rule="evenodd" class="s5" d="m519.9 163.56c-12.47-11.5-20.64-26.55-21.85-40.25-2.35-26.57 15.44-44.12 47.59-46.96 32.32-2.85 53.84 11.75 56.17 38.11 1.29 14.64-1.43 29.91-7.47 41.91-7.23 14.37-18.75 22.95-32.43 24.16-13.7 1.21-29.01-4.97-42.01-16.97zm-11.31-41.18c2.14 24.22 30.05 49.58 52.39 47.61 21.52-1.9 32.48-29.82 30.29-54.59-0.85-9.69-6.92-31.85-44.7-28.51-15.24 1.34-40.43 7.74-37.98 35.49z"/>
			<g id="&lt;Group&gt;" style="mix-blend-mode: multiply">
				<path id="&lt;Path&gt;" class="s6" d="m532.57 160.38c-14.21-8.99-26.07-24.9-27.43-40.35-2.45-27.75 22.74-34.15 37.97-35.49 16.73-1.48 27.23 2.05 33.82 7.27-6.64-3.87-16.3-6.16-30.36-4.92-15.24 1.34-40.43 7.74-37.98 35.49 1.25 14.18 11.34 28.75 23.98 38z"/>
				<path id="&lt;Path&gt;" class="s6" d="m558.46 178.18c13.68-1.21 25.2-9.79 32.43-24.16 6.04-12 8.76-27.27 7.46-41.91-1.08-12.35-6.39-22.13-15.05-28.73 10.69 6.53 17.28 17.16 18.51 31.08 1.29 14.64-1.43 29.91-7.47 41.91-7.23 14.37-18.75 22.95-32.43 24.16-11.3 1-23.68-3.04-34.97-11.21 10.33 6.58 21.36 9.76 31.52 8.86z"/>
			</g>
		</g>
		<g id="PASSPORT">
			<path id="&lt;Path&gt;" class="s5" d="m904.34 350.54c-2.03 2.65-5.83 3.15-8.48 1.12l-109.56-83.98c-2.65-2.03-3.15-5.83-1.12-8.48l115.3-150.42c2.04-2.66 5.84-3.16 8.49-1.13l109.56 83.98c2.65 2.04 3.15 5.83 1.12 8.48z"/>
			<path id="&lt;Path&gt;" class="s5" d="m903.53 348.01c-2.03 2.65-5.79 3.19-8.38 1.2l-107.23-82.19c-2.59-1.99-3.05-5.75-1.01-8.41l115.3-150.42c2.03-2.65 5.78-3.19 8.37-1.2l107.23 82.19c2.6 1.99 3.05 5.75 1.02 8.4z"/>
			<path id="&lt;Path&gt;" class="s9" d="m901.54 345.64c-2.03 2.65-5.73 3.23-8.25 1.29l-104.29-79.93c-2.52-1.94-2.92-5.66-0.89-8.31l115.31-150.42c2.03-2.65 5.72-3.24 8.25-1.3l104.28 79.93c2.53 1.94 2.92 5.66 0.89 8.31z"/>
			<path id="&lt;Path&gt;" class="s5" d="m906.79 347.34c-2.03 2.65-5.82 3.15-8.48 1.12l-109.55-83.98c-2.65-2.03-3.16-5.83-1.13-8.48l115.31-150.43c2.03-2.65 5.83-3.15 8.48-1.12l109.56 83.98c2.65 2.03 3.15 5.83 1.12 8.48z"/>
			<path id="&lt;Path&gt;" class="s10" d="m950.95 241.46c-15.36 20.03-44.04 23.83-64.07 8.47-20.04-15.35-23.83-44.04-8.48-64.07 15.36-20.04 44.05-23.83 64.08-8.47 20.03 15.35 23.82 44.04 8.47 64.07z"/>
			<path id="&lt;Path&gt;" class="s10" d="m958.98 199.98c-3.82-1.51-4.95 1.65-7.45 4.72-1.85-1.28-3.69-3.49-5.73-4.35-1.65-0.69-1.23-0.38-3.03-0.33-2.28 0.06-4.68 0.15-6.94 0.01-3.27-0.2-5.19-1.6-6.6-4.89-0.97-2.25-1-5.36-3.23-6.74-2.43 1.93-5.07 4.19-6.14 7.01-0.4 1.06 0.42 1.52-0.62 2.59-1.98 2.03-5.11-0.65-7.31 0.44-4.41 2.2 3.87 9.57 4.18 12.73 0.41 4.16-6.55 6.42-4.59 10.65 2.35 5.07 8.25 4.79 11.43 1.15 1.25-1.45 0.74-4.84 1.79-5.74 1.6-1.37 6.41 2.11 7.68 3.35 2.85 2.79 2.92 4.61 1.4 8.09-0.36 0.83-1.58 2.54-1.49 3.48 0.13 1.51 2.6 2.67 3.83 3.74-2.14 6.36-6.26 8.11-11.35 3.95-2.08-1.7-4.54-3.81-7.4-2.56-3.78 1.66-2.76 5.63-4.72 8.17-2.98-2.17-6.42-2.47-9.7-4-2.49-1.17-3.3-2.65-5.25-0.52-1.32 1.43-1.57 3.51-1.33 5.36 0.13 1 0.87 1.9 0.86 2.9-0.01 0.82-0.65 1.65-0.72 2.5-0.14 1.56 1.16 3.18 0.65 4.46"/>
			<path id="&lt;Path&gt;" class="s11" d="m905.02 168.46c-0.56 2.6 2.55 7.6 0.9 9.64-2.14 2.64-11.87-1.08-7.67 5.5 1.39 2.18 3 4.01 3.05 6.7 0.08 3.81-2.06 6.94-4.07 9.93 0.8 0.69 1.7 1.33 2.5 2.01-0.94 1.37-1.62 2.8-3.34 2.91-1.76 0.12-4.8-2.65-6.32-3.4-1.96-0.96-3.4-1.28-5.5-1.33-5.13-0.12-7.16 1.8-5.43 7.29 0.56 1.78 2.48 3.48 4.22 4.49 1.53 0.89 3.67 0.54 4.96 1.33 3.73 2.29-2.13 6.77 1.76 9.57-1.63 2.63-7.26 0.94-9.88 2.52-3.51 2.13-7.05 4.14-6.81 7.63"/>
			<text id="PASSPORT" style="transform: matrix(1.6,1.227,-1.227,1.6,828.237,255.171)">
				<tspan x="0" y="0" class="t12">PASSPORT
</tspan>
			</text>
		</g>
		<g id="CAMERA">
			<path id="&lt;Path&gt;" class="s13" d="m414.68 399.78l-0.22-4.57 29.54-3.59-0.86 6.7z"/>
			<path id="&lt;Path&gt;" class="s5" d="m492.91 539.6c0.39 7.86-5.67 14.55-13.54 14.94l-234.95 11.56c-7.86 0.39-14.55-5.67-14.94-13.54l-6.35-129.14c-0.39-7.86 5.67-14.55 13.53-14.94l234.96-11.56c7.86-0.39 14.55 5.68 14.94 13.54z"/>
			<path id="&lt;Path&gt;" class="s14" d="m471.62 396.92l-234.96 11.56c-7.86 0.39-13.92 7.08-13.53 14.94l1.44 29.32 263.43-12.96-1.44-29.32c-0.39-7.86-7.08-13.93-14.94-13.54z"/>
			<path id="&lt;Path&gt;" class="s15" d="m471.62 396.92l-234.96 11.56c-3.83 0.19-7.23 1.88-9.67 4.48q1.49-0.42 3.09-0.51l234.95-11.56c7.87-0.38 14.56 5.68 14.95 13.54l6.35 129.14c0.2 4.03-1.3 7.74-3.86 10.47 6.29-1.73 10.78-7.64 10.44-14.44l-6.35-129.14c-0.39-7.86-7.08-13.93-14.94-13.54z"/>
			<path id="&lt;Path&gt;" class="s16" d="m489.61 547.87l-234.96 11.56c-7.86 0.39-14.55-5.67-14.94-13.54l-6.35-129.14c-0.15-2.98 0.64-5.79 2.09-8.15-7.26 0.98-12.69 7.37-12.32 14.82l6.35 129.14c0.39 7.87 7.08 13.93 14.94 13.54l234.95-11.56c4.89-0.24 9.08-2.91 11.46-6.79q-0.6 0.09-1.22 0.12z"/>
			<path id="&lt;Path&gt;" class="s16" d="m420.35 489.36c1.82 37-26.7 68.48-63.71 70.3-37 1.82-68.48-26.71-70.3-63.71-1.82-37.01 26.71-68.48 63.71-70.3 37.01-1.82 68.48 26.7 70.3 63.71z"/>
			<path id="&lt;Path&gt;" class="s17" d="m426.08 486.79c1.82 37-26.7 68.48-63.71 70.3-37 1.82-68.48-26.71-70.3-63.71-1.82-37 26.71-68.48 63.71-70.3 37.01-1.82 68.48 26.7 70.3 63.71z"/>
			<path id="&lt;Path&gt;" class="s5" d="m416.11 487.28c1.55 31.5-22.73 58.29-54.23 59.84-31.5 1.55-58.29-22.73-59.84-54.23-1.55-31.5 22.73-58.29 54.23-59.84 31.5-1.55 58.29 22.73 59.84 54.23z"/>
			<path id="&lt;Path&gt;" class="s5" d="m413.27 487.42c1.47 29.92-21.6 55.38-51.53 56.85-29.92 1.48-55.38-21.59-56.85-51.52-1.47-29.93 21.59-55.38 51.52-56.86 29.93-1.47 55.38 21.6 56.86 51.53z"/>
			<path id="&lt;Path&gt;" class="s18" d="m383.84 488.87c0.67 13.67-9.87 25.3-23.54 25.97-13.68 0.68-25.31-9.86-25.98-23.54-0.68-13.67 9.87-25.3 23.54-25.98 13.67-0.67 25.3 9.87 25.98 23.55z"/>
			<path id="&lt;Path&gt;" class="s15" d="m411.44 504.3c1.45-5.36 2.11-11.03 1.83-16.88-1.48-29.93-26.93-53-56.86-51.53-20.26 1-37.36 13-45.85 29.92z"/>
			<path id="&lt;Path&gt;" class="s19" d="m356.27 433.05l-0.49-9.97"/>
			<path id="&lt;Path&gt;" class="s20" d="m351.31 433.51l-1.36-9.89"/>
			<path id="&lt;Path&gt;" class="s20" d="m346.41 434.4l-2.22-9.73"/>
			<path id="&lt;Path&gt;" class="s20" d="m341.6 435.72l-3.05-9.5"/>
			<path id="&lt;Path&gt;" class="s20" d="m336.93 437.45l-3.87-9.2"/>
			<path id="&lt;Path&gt;" class="s20" d="m332.43 439.58l-4.66-8.83"/>
			<path id="&lt;Path&gt;" class="s20" d="m328.13 442.09l-5.41-8.39"/>
			<path id="&lt;Path&gt;" class="s20" d="m324.06 444.97l-6.12-7.88"/>
			<path id="&lt;Path&gt;" class="s20" d="m320.26 448.19l-6.78-7.32"/>
			<path id="&lt;Path&gt;" class="s20" d="m316.76 451.74l-7.4-6.71"/>
			<path id="&lt;Path&gt;" class="s20" d="m313.58 455.57l-7.95-6.03"/>
			<path id="&lt;Path&gt;" class="s20" d="m310.75 459.67l-8.45-5.32"/>
			<path id="&lt;Path&gt;" class="s20" d="m308.28 464l-8.88-4.56"/>
			<path id="&lt;Path&gt;" class="s20" d="m306.2 468.52l-9.25-3.77"/>
			<path id="&lt;Path&gt;" class="s20" d="m304.52 473.21l-9.54-2.95"/>
			<path id="&lt;Path&gt;" class="s20" d="m303.26 478.03l-9.76-2.1"/>
			<path id="&lt;Path&gt;" class="s20" d="m302.42 482.94l-9.91-1.24"/>
			<path id="&lt;Path&gt;" class="s20" d="m302.01 487.91l-9.98-0.38"/>
			<path id="&lt;Path&gt;" class="s20" d="m302.04 492.89l-9.97 0.49"/>
			<path id="&lt;Path&gt;" class="s20" d="m302.5 497.85l-9.89 1.36"/>
			<path id="&lt;Path&gt;" class="s20" d="m303.39 502.75l-9.73 2.22"/>
			<path id="&lt;Path&gt;" class="s20" d="m304.71 507.56l-9.5 3.05"/>
			<path id="&lt;Path&gt;" class="s20" d="m306.44 512.23l-9.2 3.87"/>
			<path id="&lt;Path&gt;" class="s20" d="m308.57 516.73l-8.83 4.67"/>
			<path id="&lt;Path&gt;" class="s20" d="m311.08 521.04l-8.39 5.41"/>
			<path id="&lt;Path&gt;" class="s20" d="m313.96 525.1l-7.88 6.12"/>
			<path id="&lt;Path&gt;" class="s20" d="m317.18 528.9l-7.32 6.78"/>
			<path id="&lt;Path&gt;" class="s20" d="m320.73 532.4l-6.7 7.4"/>
			<path id="&lt;Path&gt;" class="s20" d="m324.56 535.58l-6.03 7.96"/>
			<path id="&lt;Path&gt;" class="s20" d="m328.66 538.42l-5.32 8.45"/>
			<path id="&lt;Path&gt;" class="s20" d="m332.98 540.88l-4.55 8.89"/>
			<path id="&lt;Path&gt;" class="s20" d="m337.51 542.96l-3.76 9.25"/>
			<path id="&lt;Path&gt;" class="s20" d="m342.2 544.64l-2.94 9.54"/>
			<path id="&lt;Path&gt;" class="s20" d="m347.02 545.91l-2.1 9.76"/>
			<path id="&lt;Path&gt;" class="s20" d="m351.93 546.74l-1.24 9.91"/>
			<path id="&lt;Path&gt;" class="s20" d="m356.9 547.15l-0.38 9.98"/>
			<path id="&lt;Path&gt;" class="s20" d="m361.88 547.12l0.49 9.97"/>
			<path id="&lt;Path&gt;" class="s20" d="m366.84 546.66l1.36 9.89"/>
			<path id="&lt;Path&gt;" class="s20" d="m371.74 545.77l2.22 9.73"/>
			<path id="&lt;Path&gt;" class="s20" d="m376.55 544.45l3.06 9.51"/>
			<path id="&lt;Path&gt;" class="s20" d="m381.22 542.72l3.87 9.2"/>
			<path id="&lt;Path&gt;" class="s20" d="m385.72 540.59l4.66 8.83"/>
			<path id="&lt;Path&gt;" class="s20" d="m390.02 538.08l5.42 8.39"/>
			<path id="&lt;Path&gt;" class="s20" d="m394.09 535.2l6.12 7.89"/>
			<path id="&lt;Path&gt;" class="s20" d="m397.89 531.98l6.79 7.32"/>
			<path id="&lt;Path&gt;" class="s20" d="m401.39 528.43l7.4 6.7"/>
			<path id="&lt;Path&gt;" class="s20" d="m404.57 524.6l7.96 6.03"/>
			<path id="&lt;Path&gt;" class="s20" d="m407.4 520.5l8.46 5.32"/>
			<path id="&lt;Path&gt;" class="s20" d="m409.87 516.17l8.89 4.56"/>
			<path id="&lt;Path&gt;" class="s20" d="m411.95 511.65l9.25 3.77"/>
			<path id="&lt;Path&gt;" class="s20" d="m413.63 506.96l9.54 2.94"/>
			<path id="&lt;Path&gt;" class="s20" d="m414.89 502.14l9.76 2.1"/>
			<path id="&lt;Path&gt;" class="s20" d="m415.73 497.23l9.91 1.24"/>
			<path id="&lt;Path&gt;" class="s20" d="m416.13 492.26l9.98 0.38"/>
			<path id="&lt;Path&gt;" class="s20" d="m416.11 487.28l9.97-0.49"/>
			<path id="&lt;Path&gt;" class="s20" d="m415.65 482.32l9.89-1.36"/>
			<path id="&lt;Path&gt;" class="s20" d="m414.76 477.42l9.73-2.22"/>
			<path id="&lt;Path&gt;" class="s20" d="m413.44 472.62l9.51-3.06"/>
			<path id="&lt;Path&gt;" class="s20" d="m411.71 467.95l9.21-3.88"/>
			<path id="&lt;Path&gt;" class="s20" d="m409.58 463.44l8.83-4.67"/>
			<path id="&lt;Path&gt;" class="s20" d="m407.07 459.14l8.39-5.42"/>
			<path id="&lt;Path&gt;" class="s20" d="m404.19 455.08l7.88-6.13"/>
			<path id="&lt;Path&gt;" class="s20" d="m400.96 451.28l7.33-6.8"/>
			<path id="&lt;Path&gt;" class="s20" d="m397.42 447.77l6.71-7.4"/>
			<path id="&lt;Path&gt;" class="s20" d="m393.59 444.59l6.03-7.96"/>
			<path id="&lt;Path&gt;" class="s20" d="m389.49 441.76l5.32-8.46"/>
			<path id="&lt;Path&gt;" class="s20" d="m385.16 439.29l4.56-8.89"/>
			<path id="&lt;Path&gt;" class="s20" d="m380.64 437.21l3.77-9.25"/>
			<path id="&lt;Path&gt;" class="s20" d="m375.95 435.53l2.94-9.54"/>
			<path id="&lt;Path&gt;" class="s20" d="m371.13 434.27l2.1-9.76"/>
			<path id="&lt;Path&gt;" class="s20" d="m366.22 433.43l1.24-9.91"/>
			<path id="&lt;Path&gt;" class="s20" d="m361.25 433.03l0.38-9.99"/>
			<path id="&lt;Path&gt;" class="s21" d="m283.69 442.01c0.12 2.36-1.7 4.37-4.06 4.49l-34.35 1.69c-2.36 0.11-4.37-1.71-4.48-4.06l-0.76-15.46c-0.12-2.36 1.7-4.37 4.06-4.48l34.35-1.69c2.36-0.12 4.36 1.7 4.48 4.06z"/>
			<path id="&lt;Path&gt;" class="s13" d="m284.77 441.43c0.11 2.36-1.71 4.37-4.07 4.49l-34.35 1.69c-2.36 0.11-4.36-1.71-4.48-4.07l-0.76-15.45c-0.11-2.36 1.7-4.37 4.06-4.49l34.35-1.69c2.36-0.11 4.37 1.71 4.48 4.07z"/>
			<path id="&lt;Path&gt;" class="s22" d="m282.63 440.78c0.1 2.13-1.54 3.94-3.67 4.04l-30.98 1.53c-2.13 0.1-3.94-1.54-4.04-3.67l-0.69-13.94c-0.1-2.13 1.54-3.94 3.66-4.04l30.99-1.53c2.13-0.1 3.94 1.54 4.04 3.67z"/>
			<path id="&lt;Path&gt;" class="s21" d="m247.38 433c-0.1-2.13 1.54-3.94 3.67-4.05l30.92-1.52-0.03-0.59c-0.1-2.13-1.91-3.77-4.04-3.67l-30.99 1.53c-2.12 0.1-3.76 1.91-3.66 4.04l0.69 13.94c0.1 2.13 1.91 3.77 4.04 3.67l0.06-0.01z"/>
		</g>
		<g id="MAP">
			<g id="&lt;Group&gt;">
				<path id="&lt;Path&gt;" class="s0" d="m823.23 644.25l-50.93-7.62-32.22-156.59 50.93 7.62z"/>
				<path id="&lt;Path&gt;" class="s0" d="m917.94 624.76l-50.93-7.62-32.22-156.59 50.93 7.62z"/>
				<path id="&lt;Path&gt;" class="s0" d="m1012.65 605.27l-50.93-7.62-32.22-156.58 50.93 7.62z"/>
				<g id="&lt;Group&gt;">
					<path id="&lt;Path&gt;" class="s23" d="m823.23 644.25l43.78-27.11-32.22-156.59-43.78 27.11z"/>
					<path id="&lt;Path&gt;" class="s23" d="m917.94 624.76l43.78-27.11-32.22-156.58-43.78 27.1z"/>
					<path id="&lt;Path&gt;" class="s23" d="m1012.65 605.27l43.78-27.1-32.22-156.59-43.78 27.11z"/>
				</g>
				<g id="&lt;Clip Group&gt;" clip-path="url(#cp1)">
					<g id="&lt;Group&gt;">
						<path id="&lt;Path&gt;" class="s24" d="m929.25 623.2l-5.84-2.74c0.47-1.01 0.84-2.11 1.23-3.28q0.2-0.59 0.4-1.18c0.59-1.72 1.08-3.51 1.54-5.25 1.51-5.62 3.07-11.43 8.55-15.73l0.84-0.65c0.78-0.61 1.67-1.29 1.88-1.58 0.04-0.22 0.03-0.82-0.22-2.41-0.42-2.71-1.05-5.51-1.65-8.22q-0.48-2.12-0.92-4.24c-2.65-12.89-0.65-22.89 6.11-30.58q0.91-1.02 1.77-1.94c1.66-1.77 2.96-3.16 4-5.29q0.39-0.82 0.73-1.6c1.14-2.57 2.43-5.49 5.91-7.46 7.13-4.07 16.44-2.85 22.51 0.17 1.54 0.77 3.33 1.92 5.23 3.13 4.61 2.96 11.59 7.42 14.81 5.5 1.26-0.76 2.1-3.57 2.78-5.83 0.32-1.06 0.65-2.17 1.04-3.18 2.43-6.31 5.03-11.37 8.16-15.96 8.69-12.71 21.59-16.77 31.85-18.88l1.3 6.31c-13.66 2.81-21.98 7.66-27.83 16.21-2.84 4.16-5.22 8.82-7.47 14.64-0.3 0.78-0.58 1.72-0.88 2.71-0.99 3.33-2.23 7.47-5.65 9.52-6.64 3.97-15.28-1.57-21.59-5.61-1.75-1.12-3.4-2.18-4.62-2.79-4.53-2.25-11.63-3.09-16.45-0.34-1.56 0.88-2.17 2.14-3.21 4.48q-0.38 0.88-0.82 1.79c-1.46 3.01-3.31 4.98-5.09 6.89q-0.8 0.84-1.64 1.79c-5.41 6.14-6.88 14.1-4.63 25.02q0.43 2.07 0.89 4.14c0.63 2.81 1.28 5.71 1.73 8.63 0.89 5.69-0.27 7.13-4.08 10.08l-0.81 0.63c-3.79 2.96-4.96 7.3-6.3 12.32-0.5 1.84-1.01 3.76-1.68 5.69q-0.19 0.56-0.37 1.11c-0.44 1.29-0.88 2.63-1.51 3.98z"/>
						<path id="&lt;Path&gt;" class="s24" d="m888.57 536.44c-1.36 0.28-2.79 0.35-4.23 0.11-3.97-0.67-6.1-3.32-7.82-5.45-0.78-0.96-1.51-1.87-2.37-2.58-2.11-1.78-5.06-2.07-8.49-2.4-3.68-0.36-7.84-0.77-11.67-3.2-3.82-2.43-6.55-5.87-8.16-8.32-0.76-1.16-1.34-2.39-1.89-3.58-1.24-2.63-1.95-3.9-3.13-4.15-2.83-0.61-6.07-0.13-9.49 0.37-3.98 0.59-8.09 1.2-12.32 0.29-5.1-1.09-10.18-3.62-13.6-6.76-3.33-3.07-4.71-6.46-5.93-9.46-0.71-1.73-1.37-3.36-2.37-4.95l5.45-3.44c1.3 2.07 2.11 4.05 2.89 5.96 1.1 2.71 2.06 5.06 4.33 7.15 2.56 2.36 6.62 4.35 10.58 5.2 3.09 0.66 6.46 0.16 10.03-0.36 3.84-0.57 7.8-1.15 11.77-0.31 4.45 0.94 6.29 4.86 7.62 7.73 0.48 1.02 0.94 1.99 1.44 2.76 1.27 1.93 3.39 4.61 6.24 6.43 2.53 1.61 5.59 1.91 8.84 2.22 3.92 0.39 8.37 0.82 12.01 3.88 1.33 1.12 2.34 2.37 3.24 3.48 1.52 1.88 2.38 2.88 3.87 3.13 2.17 0.37 4.95-1.06 6.57-2.66 0.81-0.81 1.22-1.47 1.7-2.24 0.9-1.46 2.02-3.28 5.28-4.61 1.86-0.76 3.63-1.33 5.35-1.88 2.51-0.8 4.87-1.55 7.17-2.81 7.58-4.17 11.06-9.56 11.27-17.47 0.08-3.07-0.25-6.1-0.6-9.3-0.49-4.57-1.01-9.29-0.26-14.18q0.23-1.44 0.46-2.74c0.63-3.68 1.09-6.35 0.27-10.28-0.98-4.72-2.56-8.52-4.79-13.14l5.8-2.8c2.38 4.91 4.19 9.28 5.31 14.63 1.06 5.13 0.46 8.63-0.24 12.69q-0.22 1.24-0.44 2.62c-0.62 4.06-0.17 8.16 0.3 12.5 0.36 3.28 0.73 6.67 0.63 10.17-0.27 10.19-5.05 17.7-14.61 22.95-2.84 1.56-5.62 2.45-8.31 3.3-1.67 0.54-3.25 1.04-4.87 1.7-1.32 0.55-1.53 0.89-2.24 2.04-0.54 0.88-1.29 2.09-2.65 3.43-1.82 1.8-4.7 3.66-7.94 4.33z"/>
						<path id="&lt;Path&gt;" class="s24" d="m798.91 638.48l-6.26-1.53c0.36-1.5-0.32-4.27-0.92-6.71-0.58-2.36-1.18-4.8-1.2-7.11-0.06-6.71 1.06-12.5 3.43-17.72l0.22-0.48c3-6.58 6.09-13.39 11.42-18.98 1.67-1.75 3.3-3.28 4.88-4.75 3.16-2.94 6.13-5.73 8.76-9.82 3.44-5.35 3.87-9.83 4.41-15.5 0.21-2.13 0.42-4.34 0.8-6.81 0.74-4.77 3.88-9.14 8.83-12.31 4.42-2.82 9.72-4.32 14.53-4.1 1.11 0.06 2.11 0.17 2.99 0.28 3.05 0.35 4.08 0.47 6.22-1.86 1.98-2.16 2.48-4.47 1.56-7.26l6.12-2.01c1.66 5.03 0.64 9.74-2.94 13.63-4.36 4.75-8.26 4.3-11.7 3.9-0.82-0.1-1.66-0.19-2.55-0.24-6.74-0.31-15.69 4.51-16.69 10.96-0.35 2.28-0.56 4.39-0.75 6.44-0.58 6.01-1.12 11.7-5.41 18.37-3.06 4.76-6.47 7.96-9.78 11.04-1.51 1.41-3.07 2.87-4.61 4.49-4.58 4.8-7.32 10.82-10.22 17.2l-0.22 0.48c-1.98 4.34-2.91 9.24-2.85 14.99 0.01 1.56 0.52 3.63 1.01 5.64 0.82 3.31 1.66 6.73 0.92 9.77z"/>
					</g>
				</g>
				<g id="&lt;Group&gt;" style="mix-blend-mode: multiply">
					<path id="&lt;Path&gt;" class="s23" d="m823.23 644.25l43.78-27.11-32.22-156.59-43.78 27.11z"/>
					<path id="&lt;Path&gt;" class="s23" d="m917.94 624.76l43.78-27.11-32.22-156.58-43.78 27.1z"/>
					<path id="&lt;Path&gt;" class="s23" d="m1012.65 605.27l43.78-27.1-32.22-156.59-43.78 27.11z"/>
				</g>
			</g>
			<path id="&lt;Compound Path&gt;" fill-rule="evenodd" class="s24" d="m1013.2 607.96l-50.93-7.62-43.78 27.11-50.93-7.62-43.78 27.11-53.64-8.03-33.33-161.97 53.65 8.03 43.78-27.11 50.92 7.62 43.79-27.1 50.93 7.62 46.11-28.55 33.33 161.96zm-52.04-13l50.93 7.62 41.45-25.66-31.11-151.2-41.45 25.65-50.93-7.62-43.78 27.11-50.93-7.62-43.78 27.11-48.21-7.22 31.11 151.21 48.21 7.21 43.78-27.1 50.93 7.62z"/>
		</g>
		<g id="WORLD">
			<path id="&lt;Path&gt;" fill-rule="evenodd" class="s25" d="m627.95 649.4c-142.18 0-257.11-114.93-257.11-257.11 0-142.18 114.93-257.11 257.11-257.11 142.19 0 257.12 114.93 257.12 257.11 0 142.18-114.93 257.11-257.12 257.11z"/>
			<g id="&lt;Clip Group&gt;" clip-path="url(#cp2)">
				<g id="&lt;Group&gt;">
					<g id="&lt;Group&gt;">
						<path id="&lt;Path&gt;" class="s26" d="m821.99 195.41c-9.41 5.41-20.36-7.36-31.08 0.93-11.46 8.86-2.76 25.28-11.19 31.83-10.12 7.85-22.85-5.18-31.4-8.91-10.68-4.67-11.99-0.58-16.34 9.44-13.82 2.47-19 6.75-30.28 14.67-8.75 6.14-21.47 16.44-14.34 29.51 8.94 16.38 20.25 4.19 29.33-1.02 15.23-8.76 23.06 1.95 24.01 17.32 0.2 3.28 2.4 6.25 0.02 9.27-2.73 3.45-20.27 5.29-24.95 7.16-8.08 3.22-15.4 7.75-23.6 10.4 0.32 1.52-0.6 3.85-0.26 5.42-7.08 0.35-14.33 0.7-21.24-1.03-5.36-1.33-8.22-5.4-13.82-2.41-10.22 5.49-4.57 19.43-6.16 27.48-2.62 13.33-20.1 11.1-18.9 27.65 1.28 17.49 20.75 31.31 33.38 42.02 4.36 3.71 11.06 7.92 14.2 12.77 3.44 5.32 1.31 14.23 5.73 18.94 9.25 9.84 21.22-2.31 26.02-11.54 4.54-8.75-0.13-18.9 2.83-27.7 2.73-8.07 9.95-7.74 16.31-12.23 5.81-4.09 5.92-6 7.67-13.16 1.75-7.13 0.49-10.1 7.86-13.86 6.67-3.4 7.14 1.54 9.3-6.41 1.33-4.94-3.26-8.92 0.87-12.68 3.51-3.2 16.85-1.32 20.23 0.96 4.13 2.8 7.44 10.53 11.35 14.33 6.3 6.13 13.72 11.22 16.1 20.03 3.41 12.64-4.32 27.29-0.69 39.78 2.69 9.25 10.93 12.6 16.37 18.59-19.07 20.02-42.65 26.1-68.96 29.84-18.33 2.61-39.09-0.84-56.73 3.4-7.81 1.89-11.79 4.96-15.77 12.19-2.76 5-3.08 14.26-6.86 17.7-7.16 6.51-28.96 0.65-28.76 14.98 0.21 15.66 32.41 24.14 43.78 27.05 6.87 1.76 14.57 1.04 18.43 7.24 6.59 10.59 0.37 25.97 7.63 36.7 2.95 4.37 9.73 7.45 11.48 12.32 3.6 10.03-6.75 11.52-8.64 19.18-2.22 9.03 8.79 23.16 9.64 33.39 11.42-0.97 26.48-13.91 35.91-20.68 9.38-6.74 16.8-16.58 22.41-26.57 3.74-6.68 5.06-14.5 11.08-19.54 8.41-7.03 19.77-5.41 27.07-14.13 7.67-9.15 12.56-28.32 10.59-39.99-2.36-14-23.51-30.38-18.51-45.53 4.04-12.22 22.32-13.19 30.61-20.98 4.66-4.4 12.93-12.72 15.61-18.58 4.66-10.16-0.03-15.11 7.66-23.31 0.1-0.12 9.21-8.18 8.2-7.9 9.03-2.5 12.61 8.68 20.45 11.54 14.33 5.23 16.43-13.82 19.07-25.32 2.31-10.1 2.88-19.37 2.86-29.74-0.01-8.14 0.89-16.73 0.25-24.82-1.13-14.15-9.29-23.76-15.77-35.88-11.03-20.62-10.32-47.32-24.62-65.63"/>
						<path id="&lt;Path&gt;" class="s26" d="m461.66 173.43c-0.01 5.53-1.6 13.8 1.44 18.42 8.73 13.28 38.14 7.1 50.51 17.27 5.96 4.9 6.18 7.54 7.31 14.35 2.45 14.81 3.52 21.32 17.2 29.33 14.56 8.53 41.1 6.97 42.08 28.89 0.79 17.8-28.56 16.8-41.61 22.68-7.59 3.43-19.32 9.77-22.28 18.02-3.07 8.55 1.79 18.34-2.04 26.9-6.12 13.68-22 35.3-35.38 43.27-10.93 6.51-23.75 4-34.16 11.49-17.47 12.57-7.65 22.8 10.18 23.66 8.43 0.41 12.57-0.77 19.37 3.96 10.69 7.43 15.76 17.64 29.45 20.58 20.07 4.32 21.31-2.37 25.07 22.37 1.24 8.2 5.05 14.7-1.36 19.74-5.96 4.67-17.64 2.72-24.47 6.86-10.47 6.36-11.2 16.72-10.81 27.99 0.51 14.51 10.96 21 14.09 34.06 3.99 16.66 22.22 32.44 20.4 49.83-1.83 17.51-17.22 7.46-26.79 0.95-14.47-9.87-22.3-20.31-31.93-33.85-5.78-8.11-13.5-14.02-19.68-21.4-5.2-6.21-8.82-14.03-13.26-21.14-7.32-11.74-12.61-19.04-25.93-23.22-8.69-2.73-16.62-4.95-24.77-9.09-14.98-7.61-11.97-22.16-17.99-36.58 7.97-4.3 54.24-24.36 39.97-36.51-8.44-7.18-27.03-4.28-37.16-4.71-3.97-13.09-13.03-25.16-14.5-38.83-1.64-15.27-2.82-33.69-1.03-48.91 0.8-6.72 4.67-12.31 5.85-18.19 1.3-6.44-0.75-13.11 0.93-19.71 6.09-23.96 26.84-45.03 40.37-65.07 5.78-8.56 10.92-17.2 14.18-27.05 2.35-7.1 2.61-15.4 6.53-21.92 3.71-6.18 9.4-10.19 16.32-11.58"/>
						<path id="&lt;Path&gt;" class="s26" d="m522.83 128.5c0.29 10.79-1.21 21.54-0.89 32.31 4.69 1.73 28.5-1.61 29.69 4.95 1.1 6.05-14.94 10.72-15.37 18.97 17.28 8.01 44.05 3.01 62.79 3.03 16.86 0.03 16.78-1.55 23.16-15.29 8.49-18.25 24.69-0.09 37.41-5.04 3.52-1.37 5.64-6.29 9.14-8.15 5.68-3.02 13.94-2.06 19.98-2.13 9.43-0.09 17.28 1.4 26.06 2.78 0.36-6.88 1.32-39.42-12.28-37.16"/>
						<path id="&lt;Path&gt;" class="s26" d="m597.38 665.66c-10.48-2.07-18.75-11.23-3.68-16.06 8.64-2.77 18.52-1.61 26.42-7.12 1.44-1 0.42-3.13 1.5-3.82 5.34-3.41 9.19-4.15 16.09-4.61 13.98-0.93 25.68 7.04 38.84 10.33 14.55 3.63 23.23 2.89 21.19 18.41"/>
					</g>
					<g id="&lt;Group&gt;">
						<path id="&lt;Path&gt;" class="s27" d="m821.99 192.43c-9.41 5.41-20.36-7.36-31.08 0.93-11.46 8.86-2.76 25.28-11.19 31.83-10.12 7.85-22.85-5.18-31.4-8.91-10.68-4.67-11.99-0.58-16.34 9.44-13.82 2.47-19 6.75-30.28 14.67-8.75 6.15-21.47 16.44-14.34 29.51 8.94 16.38 20.25 4.19 29.33-1.02 15.23-8.76 23.06 1.96 24.01 17.32 0.2 3.28 2.4 6.25 0.02 9.27-2.73 3.45-20.27 5.29-24.95 7.16-8.08 3.22-15.4 7.75-23.6 10.4 0.32 1.52-0.6 3.85-0.26 5.42-7.08 0.35-14.33 0.7-21.24-1.03-5.36-1.33-8.22-5.4-13.82-2.41-10.22 5.49-4.57 19.43-6.16 27.48-2.62 13.33-20.1 11.1-18.9 27.65 1.28 17.5 20.75 31.31 33.38 42.02 4.36 3.71 11.06 7.92 14.2 12.77 3.44 5.32 1.31 14.23 5.73 18.94 9.25 9.84 21.22-2.31 26.02-11.54 4.54-8.74-0.13-18.9 2.83-27.7 2.73-8.07 9.95-7.74 16.31-12.23 5.81-4.09 5.92-6 7.67-13.16 1.75-7.13 0.49-10.1 7.86-13.86 6.67-3.4 7.14 1.54 9.3-6.4 1.33-4.95-3.26-8.93 0.87-12.69 3.51-3.2 16.85-1.32 20.23 0.96 4.13 2.79 7.44 10.53 11.35 14.33 6.3 6.13 13.72 11.22 16.1 20.03 3.41 12.64-4.32 27.29-0.69 39.78 2.69 9.25 10.93 12.6 16.37 18.59-19.07 20.02-42.65 26.1-68.96 29.84-18.33 2.61-39.09-0.84-56.73 3.41-7.81 1.88-11.79 4.96-15.77 12.19-2.76 4.99-3.08 14.25-6.86 17.69-7.16 6.52-28.96 0.65-28.76 14.98 0.21 15.66 32.41 24.14 43.78 27.05 6.87 1.76 14.57 1.04 18.43 7.24 6.59 10.59 0.37 25.97 7.63 36.71 2.95 4.36 9.73 7.44 11.48 12.31 3.6 10.03-6.75 11.52-8.64 19.18-2.22 9.03 8.79 23.16 9.64 33.39 11.42-0.97 26.48-13.91 35.91-20.68 9.38-6.74 16.8-16.58 22.41-26.57 3.74-6.68 5.06-14.5 11.08-19.54 8.41-7.03 19.77-5.41 27.07-14.13 7.67-9.15 12.56-28.32 10.59-39.99-2.36-14-23.51-30.38-18.51-45.53 4.04-12.22 22.32-13.19 30.61-20.98 4.66-4.39 12.93-12.72 15.61-18.58 4.66-10.16-0.03-15.11 7.66-23.31 0.1-0.12 9.21-8.17 8.2-7.89 9.03-2.51 12.61 8.67 20.45 11.53 14.33 5.23 16.43-13.82 19.07-25.32 2.31-10.1 2.88-19.37 2.86-29.73-0.01-8.15 0.89-16.74 0.25-24.83-1.13-14.15-9.29-23.76-15.77-35.88-11.03-20.62-10.32-47.32-24.62-65.63"/>
						<path id="&lt;Path&gt;" class="s27" d="m461.66 170.45c-0.01 5.53-1.6 13.8 1.44 18.42 8.73 13.28 38.14 7.1 50.51 17.27 5.96 4.9 6.18 7.54 7.31 14.35 2.45 14.81 3.52 21.32 17.2 29.33 14.56 8.53 41.1 6.97 42.08 28.89 0.79 17.8-28.56 16.8-41.61 22.68-7.59 3.43-19.32 9.77-22.28 18.02-3.07 8.55 1.79 18.34-2.04 26.9-6.12 13.68-22 35.3-35.38 43.27-10.93 6.51-23.75 4-34.16 11.49-17.47 12.57-7.65 22.81 10.18 23.66 8.43 0.41 12.57-0.77 19.37 3.96 10.69 7.43 15.76 17.64 29.45 20.58 20.07 4.32 21.31-2.37 25.07 22.37 1.24 8.21 5.05 14.71-1.36 19.74-5.96 4.67-17.64 2.72-24.47 6.86-10.47 6.36-11.2 16.73-10.81 27.99 0.51 14.51 10.96 21 14.09 34.06 3.99 16.66 22.22 32.44 20.4 49.83-1.83 17.51-17.22 7.46-26.79 0.95-14.47-9.86-22.3-20.31-31.93-33.85-5.78-8.11-13.5-14.02-19.68-21.4-5.2-6.21-8.82-14.03-13.26-21.14-7.32-11.74-12.61-19.04-25.93-23.22-8.69-2.73-16.62-4.95-24.77-9.09-14.98-7.61-11.97-22.16-17.99-36.58 7.97-4.29 54.24-24.36 39.97-36.51-8.44-7.18-27.03-4.27-37.16-4.71-3.97-13.09-13.03-25.16-14.5-38.83-1.64-15.27-2.82-33.69-1.03-48.91 0.8-6.72 4.67-12.31 5.85-18.19 1.3-6.44-0.75-13.11 0.93-19.72 6.09-23.95 26.84-45.02 40.37-65.06 5.78-8.56 10.92-17.2 14.18-27.05 2.35-7.1 2.61-15.4 6.53-21.92 3.71-6.18 9.4-10.19 16.32-11.58"/>
						<path id="&lt;Path&gt;" class="s27" d="m522.83 125.52c0.29 10.79-1.21 21.54-0.89 32.31 4.69 1.73 28.5-1.61 29.69 4.95 1.1 6.05-14.94 10.72-15.37 18.97 17.28 8.01 44.05 3.01 62.79 3.03 16.86 0.03 16.78-1.55 23.16-15.29 8.49-18.25 24.69-0.09 37.41-5.04 3.52-1.37 5.64-6.29 9.14-8.15 5.68-3.02 13.94-2.07 19.98-2.13 9.43-0.09 17.28 1.4 26.06 2.78 0.36-6.88 1.32-39.42-12.28-37.16"/>
						<path id="&lt;Path&gt;" class="s27" d="m597.38 662.68c-10.48-2.06-18.75-11.22-3.68-16.05 8.64-2.78 18.52-1.62 26.42-7.13 1.44-1 0.42-3.13 1.5-3.82 5.34-3.41 9.19-4.15 16.09-4.6 13.98-0.94 25.68 7.04 38.84 10.32 14.55 3.63 23.23 2.89 21.19 18.42"/>
					</g>
				</g>
			</g>
			<path id="&lt;Path&gt;" class="s28" d="m692.95 548.95c-142 0-257.11-115.11-257.11-257.11 0-29.99 5.15-58.77 14.59-85.53-49.04 46.81-79.59 112.83-79.59 185.98 0 142 115.12 257.11 257.11 257.11 112.01 0 207.27-71.63 242.52-171.58-46.15 44.07-108.67 71.13-177.52 71.13z"/>
			<path id="&lt;Path&gt;" class="s29" d="m804.1 238.73c58.19 70.39 75.51 152.12 38.69 182.55-36.82 30.44-70.62-37.94-128.8-108.32-58.19-70.38-118.71-116.12-81.9-146.56 36.82-30.43 113.83 1.95 172.01 72.33z"/>
			<path id="&lt;Path&gt;" class="s28" d="m627.95 586.32c-131.31 0-239.63-98.45-255.18-225.57-1.26 10.34-1.93 20.86-1.93 31.54 0 142 115.12 257.11 257.11 257.11 142 0 257.12-115.11 257.12-257.11 0-10.68-0.67-21.2-1.93-31.54-15.55 127.12-123.87 225.57-255.19 225.57z"/>
		</g>
		<g id="PLANE">
			<g id="&lt;Group&gt;">
				<path id="&lt;Path&gt;" class="s5" d="m279.43 230.06c0 0 41.5-26.39 75.06-10.47 33.56 15.91 107.92 91.92 129.89 96.41 21.97 4.5 40.47-10.57 40.47-10.57l5.3 9.14c0 0-46.65 54.06-59.45 48.24-12.79-5.83-130.67-50.6-171.3-77.3-40.63-26.7-33.34-48.6-19.97-55.45z"/>
				<path id="&lt;Path&gt;" class="s24" d="m281.33 271.07c-1.15-20.47 8.08-46.33 8.08-46.33-6.2 2.91-9.98 5.32-9.98 5.32-10.87 5.57-17.71 21.07 1.9 41.01z"/>
				<path id="&lt;Path&gt;" class="s30" d="m293.44 222.93c0.02 0.01 33.62 22.78 47.16 24.15 13.53 1.38 13.89-27.49 13.89-27.49-21.39-10.15-46.01-3.1-61.05 3.34z"/>
				<path id="&lt;Path&gt;" class="s31" d="m354.49 219.59q-0.38-0.18-0.77-0.35c-0.29 5.85-2.15 27.2-13.85 26.02-11.57-1.17-37.83-18-45.2-22.85q-0.63 0.26-1.23 0.52c0.02 0.01 33.62 22.78 47.16 24.15 13.53 1.38 13.89-27.49 13.89-27.49z"/>
				<g id="&lt;Group&gt;">
					<path id="&lt;Path&gt;" class="s32" d="m364.89 253.92c-2.09 3.84-6.54 5.44-9.95 3.58-3.41-1.85-4.48-6.46-2.39-10.3 2.09-3.83 6.54-5.44 9.95-3.58 3.41 1.86 4.48 6.47 2.39 10.3z"/>
					<path id="&lt;Path&gt;" class="s33" d="m365.55 253.7c-2.09 3.84-6.55 5.44-9.96 3.58-3.4-1.85-4.47-6.46-2.39-10.3 2.09-3.83 6.55-5.43 9.95-3.58 3.41 1.86 4.48 6.47 2.4 10.3z"/>
					<path id="&lt;Path&gt;" class="s34" d="m356.36 244.99l7.9 8.59c0 0 3-5.09-0.37-8.21-3.38-3.12-7.53-0.38-7.53-0.38z"/>
				</g>
				<g id="&lt;Group&gt;">
					<path id="&lt;Path&gt;" class="s32" d="m384.34 267.02c-2.09 3.83-6.55 5.43-9.95 3.58-3.41-1.86-4.48-6.47-2.39-10.31 2.08-3.83 6.54-5.43 9.95-3.58 3.41 1.86 4.47 6.47 2.39 10.31z"/>
					<path id="&lt;Path&gt;" class="s33" d="m384.99 266.8c-2.09 3.83-6.54 5.43-9.95 3.58-3.41-1.86-4.48-6.47-2.39-10.31 2.09-3.83 6.54-5.43 9.95-3.58 3.41 1.86 4.48 6.47 2.39 10.31z"/>
					<path id="&lt;Path&gt;" class="s34" d="m375.81 258.08l7.89 8.59c0 0 3-5.09-0.37-8.21-3.37-3.12-7.52-0.38-7.52-0.38z"/>
				</g>
				<g id="&lt;Group&gt;">
					<path id="&lt;Path&gt;" class="s32" d="m403.54 279.96c-2 3.68-6.27 5.22-9.54 3.44-3.27-1.78-4.29-6.2-2.29-9.88 2-3.67 6.27-5.21 9.54-3.43 3.26 1.78 4.29 6.2 2.29 9.87z"/>
					<path id="&lt;Path&gt;" class="s33" d="m404.16 279.76c-2 3.67-6.27 5.21-9.53 3.43-3.27-1.78-4.3-6.2-2.3-9.88 2.01-3.67 6.28-5.21 9.54-3.43 3.27 1.78 4.29 6.2 2.29 9.88z"/>
					<path id="&lt;Path&gt;" class="s34" d="m395.36 271.4l7.57 8.23c0 0 2.87-4.87-0.36-7.86-3.23-3-7.21-0.37-7.21-0.37z"/>
				</g>
				<g id="&lt;Group&gt;">
					<path id="&lt;Path&gt;" class="s32" d="m422.83 292.97c-1.94 3.58-6.1 5.07-9.28 3.34-3.18-1.73-4.18-6.04-2.23-9.61 1.95-3.58 6.1-5.08 9.28-3.34 3.18 1.73 4.18 6.03 2.23 9.61z"/>
					<path id="&lt;Path&gt;" class="s33" d="m423.44 292.76c-1.95 3.58-6.1 5.08-9.28 3.35-3.18-1.74-4.18-6.04-2.23-9.62 1.95-3.57 6.1-5.07 9.28-3.34 3.18 1.73 4.18 6.04 2.23 9.61z"/>
					<path id="&lt;Path&gt;" class="s34" d="m414.87 284.63l7.37 8.02c0 0 2.8-4.75-0.34-7.66-3.15-2.92-7.03-0.36-7.03-0.36z"/>
				</g>
				<g id="&lt;Group&gt;">
					<path id="&lt;Path&gt;" class="s32" d="m441.87 305.82c-1.8 3.32-5.65 4.7-8.6 3.1-2.94-1.61-3.86-5.59-2.06-8.91 1.8-3.31 5.65-4.69 8.6-3.09 2.94 1.6 3.87 5.59 2.06 8.9z"/>
					<path id="&lt;Path&gt;" class="s33" d="m442.44 305.63c-1.81 3.32-5.65 4.7-8.6 3.1-2.95-1.61-3.87-5.59-2.07-8.9 1.81-3.32 5.66-4.7 8.6-3.1 2.95 1.6 3.87 5.59 2.07 8.9z"/>
					<path id="&lt;Path&gt;" class="s34" d="m434.5 298.1l6.83 7.42c0 0 2.59-4.39-0.33-7.09-2.91-2.7-6.5-0.33-6.5-0.33z"/>
				</g>
				<g id="&lt;Group&gt;">
					<path id="&lt;Path&gt;" class="s32" d="m461.06 318.76c-1.71 3.15-5.37 4.46-8.16 2.94-2.8-1.52-3.67-5.3-1.96-8.45 1.71-3.15 5.37-4.46 8.16-2.94 2.8 1.52 3.68 5.31 1.96 8.45z"/>
					<path id="&lt;Path&gt;" class="s33" d="m461.6 318.58c-1.72 3.15-5.37 4.46-8.17 2.94-2.79-1.52-3.67-5.31-1.96-8.45 1.72-3.15 5.37-4.46 8.17-2.94 2.79 1.52 3.67 5.31 1.96 8.45z"/>
					<path id="&lt;Path&gt;" class="s34" d="m454.06 311.43l6.48 7.05c0 0 2.46-4.17-0.3-6.73-2.77-2.57-6.18-0.32-6.18-0.32z"/>
				</g>
				<path id="&lt;Path&gt;" class="s34" d="m317.41 216.73c0 0 22.96-3.06 34.81 3.25 0 0 0.31 3.88-1.49 8.76z"/>
				<path id="&lt;Path&gt;" class="s35" d="m528.55 311.8c-10.69 11.95-45.52 49.59-56.31 44.68-12.8-5.83-130.67-50.6-171.3-77.3-23.75-15.61-31.12-29.57-30.48-39.85-4.67 10.44-0.13 27.08 28.94 46.18 40.63 26.7 158.51 71.47 171.3 77.3 12.8 5.82 59.45-48.24 59.45-48.24z"/>
				<path id="&lt;Path&gt;" class="s24" d="m354.9 287.45c0 0 39.25 94.24 54.23 92.97 14.98-1.27 15.79-44.84 13.67-50.85-2.13-6.01-61.64-54.14-67.9-42.12z"/>
				<path id="&lt;Path&gt;" class="s36" d="m415.18 376.1c-13.4 1.13-46.24-74.21-53-90.06-3.6-0.94-6.21-0.64-7.28 1.41 0 0 39.25 94.24 54.23 92.97 2.74-0.23 5.01-1.89 6.87-4.47q-0.4 0.1-0.82 0.15z"/>
				<path id="&lt;Path&gt;" class="s37" d="m354.9 287.45l4.86 29 10.19 4.68c0 0-13.06-29.46-15.05-33.68z"/>
				<path id="&lt;Path&gt;" class="s38" d="m362.84 287.56c0 0 24.89 6.24 43.42 18.05 0 0-22.41-14.05-45.97-19.96"/>
				<path id="&lt;Path&gt;" class="s24" d="m491.24 318.72c0 0 19.06 24.58 23.36 23.01 4.31-1.57 1.07-14.44-0.04-16.04-1.1-1.6-22.43-11.01-23.32-6.97z"/>
				<path id="&lt;Path&gt;" class="s36" d="m510.24 347.22c-3.85 1.41-19.52-18.13-22.77-22.25-1.13 0.01-1.88 0.31-2.03 1 0 0 19.06 24.58 23.36 23.01 0.79-0.29 1.32-0.96 1.67-1.86q-0.11 0.06-0.23 0.1z"/>
			</g>
			<path id="&lt;Path&gt;" class="s39" d="m498.68 363.24c0 0 147.9 78.95 317.27 69.97 169.37-8.98 329.33-150.59 250.02-189.33-79.31-38.75-111.74 83.21-190.29 70.62"/>
		</g>
		<g id="LOCATION">
			<g id="&lt;Group&gt;">
				<path id="&lt;Path&gt;" fill-rule="evenodd" class="s40" d="m705.7 159.97c-2.48 0-4.48-1.77-4.48-3.97 0-2.2 2-3.97 4.48-3.97 2.47 0 4.48 1.77 4.48 3.97 0 2.2-2.01 3.97-4.48 3.97z"/>
				<path id="&lt;Compound Path&gt;" fill-rule="evenodd" class="s40" d="m741.45 138.02h0.01q-0.01 0-0.01 0.01-1.24 3.39-3.08 6.36c-6.01 11.44-20.87 35.41-45.14 48-16.22-21.99-18.99-50.04-19.35-62.96-0.36-3.69-0.14-7.49 0.74-11.29 4.36-18.79 23.14-30.49 41.93-26.13 18.79 4.37 30.49 23.14 26.12 41.93q-0.49 2.1-1.22 4.08zm-16.62-8.03c2.08-8.97-3.49-17.92-12.45-20-8.96-2.08-17.92 3.5-20 12.46-2.08 8.96 3.5 17.91 12.46 19.99 8.96 2.08 17.91-3.49 19.99-12.45z"/>
				<path id="&lt;Compound Path&gt;" fill-rule="evenodd" class="s24" d="m741.84 136.37q0 0-0.01 0.01-1.23 3.38-3.08 6.36c-6.01 11.44-20.87 35.41-45.13 48.01-16.23-22-19-50.05-19.36-62.97-0.36-3.68-0.14-7.49 0.74-11.29 4.37-18.79 23.14-30.49 41.93-26.12 18.79 4.36 30.49 23.13 26.12 41.93q-0.49 2.09-1.21 4.07zm-16.63-8.03c2.08-8.97-3.49-17.92-12.45-20-8.96-2.08-17.91 3.5-19.99 12.46-2.09 8.96 3.49 17.91 12.45 19.99 8.96 2.08 17.91-3.5 19.99-12.45z"/>
			</g>
			<path id="&lt;Path&gt;" fill-rule="evenodd" class="s41" d="m692.48 205.95c-7.31 0-13.22-1.12-13.22-2.52 0-1.39 5.91-2.52 13.22-2.52 7.31 0 13.22 1.13 13.22 2.52 0 1.4-5.91 2.52-13.22 2.52z"/>
		</g>
	</g>
</svg>