<?xml version="1.0" encoding="UTF-8" standalone="no"?><!DOCTYPE svg PUBLIC "-//W3C//DTD SVG 1.1//EN" "http://www.w3.org/Graphics/SVG/1.1/DTD/svg11.dtd"><svg width="100%" height="100%" viewBox="0 0 2159 711" version="1.1" xmlns="http://www.w3.org/2000/svg" xmlns:xlink="http://www.w3.org/1999/xlink" xml:space="preserve" xmlns:serif="http://www.serif.com/" style="fill-rule:evenodd;clip-rule:evenodd;stroke-linejoin:round;stroke-miterlimit:2;"><g transform="matrix(477.109893,0,0,477.109893,820.151906,322.526288)"></g><text x="-7.634px" y="322.526px" style="font-family:'Antique-Olive';font-size:477.11px;fill:#4a3334;">twe</text><g transform="matrix(477.109893,0,0,477.109893,1547.744492,322.526288)"></g><text x="1090.673px" y="322.526px" style="font-family:'Antique-Olive';font-size:477.11px;fill:#4a3334;">ty</text><path d="M846.971,268.431l-0.715,-0l0,-60.759l0.137,0l0,-146.124l54.391,0l0,16.617c0,8.27 0.159,14.949 0.477,20.039c0.318,5.089 0.954,9.701 1.908,13.836l1.908,7.634c3.817,12.723 11.053,23.06 21.709,31.012c10.655,7.952 22.822,11.928 36.499,11.928c17.812,0 29.899,-5.01 36.26,-15.029c6.361,-10.019 9.542,-28.865 9.542,-56.538l0,-29.499l55.822,0l0,42.858c0,18.766 -0.477,32.603 -1.431,41.509c-0.954,8.906 -3.181,16.858 -6.68,23.855c-0.954,1.908 -1.988,3.817 -3.101,5.725c-1.113,1.908 -2.306,3.976 -3.578,6.202c-6.043,10.178 -14.87,18.13 -26.48,23.855c-11.61,5.725 -24.253,8.588 -37.93,8.588c-25.128,0 -44.451,-5.884 -57.969,-17.653c-13.518,-11.769 -24.253,-29.104 -32.205,-52.005c0.318,5.407 0.557,10.735 0.716,15.983c0.159,5.248 0.398,10.576 0.716,15.983c0.318,5.089 0.557,10.337 0.716,15.745c0.04,1.345 0.074,2.69 0.104,4.035c-4.315,1.42 -8.451,3.199 -12.407,5.337c-11.769,6.361 -20.675,15.268 -26.718,26.718c-1.272,2.545 -2.465,5.01 -3.578,7.395c-1.113,2.386 -2.147,4.692 -3.101,6.918c-2.545,6.361 -4.135,13.757 -4.771,22.186c-0.085,1.132 -0.165,2.348 -0.239,3.649Z" style="fill:#4a3334;"/><g transform="matrix(477.109893,0,0,477.109893,2012.492901,650.430905)"></g><text x="1080.697px" y="650.431px" style="font-family:'Antique-Olive';font-size:477.11px;fill:#4a3334;">ours</text><g><path d="M1063.642,622.479l0,-330.637l-53.913,0l0,86.357c0,3.499 0.08,6.759 0.239,9.781c0.159,3.022 0.239,5.964 0.239,8.827c0,3.181 0.08,6.282 0.239,9.304c0.159,3.022 0.239,6.123 0.239,9.304c-8.906,-16.858 -20.357,-30.137 -34.352,-39.839c-13.995,-9.701 -30.694,-14.552 -50.097,-14.552c-14.949,0 -28.309,3.181 -40.077,9.542c-11.769,6.361 -20.675,15.268 -26.718,26.718c-1.272,2.545 -2.465,5.01 -3.578,7.395c-1.113,2.386 -2.147,4.692 -3.101,6.918c-2.545,6.361 -4.135,13.757 -4.771,22.186c-0.636,8.429 -0.954,21.549 -0.954,39.362l0,149.335l53.913,0l0,-141.702c0,-26.4 3.419,-44.371 10.258,-53.913c6.839,-9.542 19.8,-14.313 38.884,-14.313c9.86,0 18.846,2.067 26.957,6.202c8.111,4.135 14.87,10.019 20.277,17.653c0.954,1.59 1.908,3.022 2.863,4.294c0.954,1.272 1.749,2.704 2.386,4.294c2.863,5.407 4.771,11.371 5.725,17.892c0.954,6.521 1.431,15.665 1.431,27.434l0,132.159l53.913,0Z" style="fill:#4a3334;fill-rule:nonzero;"/><rect x="1009.256" y="553.672" width="54.747" height="90.759" style="fill:#4a3334;"/><rect x="1009.256" y="553.672" width="54.747" height="96.759" style="fill:#4a3334;"/><path d="M1009.256,276.753c4.604,-1.337 9.065,-3.071 13.383,-5.2c11.61,-5.725 20.436,-13.677 26.48,-23.855c1.272,-2.227 2.465,-4.294 3.578,-6.202c1.113,-1.908 2.147,-3.817 3.101,-5.725c3.499,-6.998 5.725,-14.949 6.68,-23.855c0.228,-2.132 0.429,-4.546 0.603,-7.242l0.922,0l0,139.759l-54.747,0l0,-67.678Z" style="fill:#4a3334;"/><rect x="847.256" y="559.672" width="53.747" height="90.759" style="fill:#4a3334;"/></g></svg>