<?xml version="1.0" encoding="UTF-8" standalone="no"?><!DOCTYPE svg PUBLIC "-//W3C//DTD SVG 1.1//EN" "http://www.w3.org/Graphics/SVG/1.1/DTD/svg11.dtd"><svg width="100%" height="100%" viewBox="0 0 2218 711" version="1.1" xmlns="http://www.w3.org/2000/svg" xmlns:xlink="http://www.w3.org/1999/xlink" xml:space="preserve" xmlns:serif="http://www.serif.com/" style="fill-rule:evenodd;clip-rule:evenodd;stroke-linejoin:round;stroke-miterlimit:2;"><g transform="matrix(477.109893,0,0,477.109893,959.504337,349.547294)"></g><text x="65.878px" y="349.547px" style="font-family:'Antique-Olive';font-size:477.11px;">Twe</text><g transform="matrix(477.109893,0,0,477.109893,1687.096923,349.547294)"></g><text x="1230.026px" y="349.547px" style="font-family:'Antique-Olive';font-size:477.11px;">ty</text><path d="M985.745,257.161l0,-162.868l51.528,0c0,5.407 -0.08,10.814 -0.239,16.222c-0.159,5.407 -0.398,10.655 -0.716,15.745c-0.318,5.407 -0.557,10.735 -0.716,15.983c-0.159,5.248 -0.398,10.576 -0.716,15.983c7.952,-22.901 18.687,-40.236 32.205,-52.005c13.518,-11.769 32.841,-17.653 57.969,-17.653c13.677,0 26.321,2.863 37.93,8.588c11.61,5.725 20.436,13.677 26.48,23.855c1.272,2.227 2.465,4.294 3.578,6.202c1.113,1.908 2.147,3.817 3.101,5.725c3.499,6.998 5.725,14.949 6.68,23.855c0.954,8.906 1.431,22.742 1.431,41.509l0,58.858l-55.822,0l0,-45.499c0,-27.672 -3.181,-46.518 -9.542,-56.538c-6.361,-10.019 -18.448,-15.029 -36.26,-15.029c-13.677,0 -25.843,3.976 -36.499,11.928c-10.655,7.952 -17.892,18.289 -21.709,31.012l-1.908,7.634c-0.954,4.135 -1.59,8.747 -1.908,13.836c-0.318,5.089 -0.477,11.769 -0.477,20.039l0,32.617l-54.391,0Z"/><g transform="matrix(-1,0,0,-1,3086.192966,3914.208035)"><g transform="matrix(477.109893,0,0,477.109893,2127.209112,3553.687213)"></g><text x="1856.688px" y="3553.687px" style="font-family:'Antique-Olive';font-size:477.11px;">n</text></g><g transform="matrix(477.109893,0,0,477.109893,2151.845332,677.451912)"></g><text x="1220.05px" y="677.452px" style="font-family:'Antique-Olive';font-size:477.11px;">ours</text><rect x="1152.387" y="613.693" width="50.747" height="63.759"/></svg>