<?xml version="1.0" encoding="UTF-8" standalone="no"?><!DOCTYPE svg PUBLIC "-//W3C//DTD SVG 1.1//EN" "http://www.w3.org/Graphics/SVG/1.1/DTD/svg11.dtd"><svg width="100%" height="100%" viewBox="0 0 2159 711" version="1.1" xmlns="http://www.w3.org/2000/svg" xmlns:xlink="http://www.w3.org/1999/xlink" xml:space="preserve" xmlns:serif="http://www.serif.com/" style="fill-rule:evenodd;clip-rule:evenodd;stroke-linejoin:round;stroke-miterlimit:2;"><g><g><path d="M94.945,69.658l88.742,0l0,49.619l-91.128,0l0,51.528c-0.318,8.588 -0.477,17.176 -0.477,25.764l0,25.764c0,23.219 2.704,39.282 8.111,48.188c5.407,8.906 14.949,13.359 28.627,13.359c6.361,0 12.405,-1.034 18.13,-3.101c5.725,-2.067 11.451,-5.487 17.176,-10.258c2.227,-1.908 4.533,-3.976 6.918,-6.202c2.386,-2.227 4.692,-4.612 6.918,-7.157l0,43.894c-1.908,2.227 -3.817,4.135 -5.725,5.725c-1.908,1.59 -3.817,3.181 -5.725,4.771c-7.952,6.043 -16.142,10.417 -24.571,13.121c-8.429,2.704 -17.892,4.055 -28.388,4.055c-35.942,0 -57.253,-11.371 -63.933,-34.113c-6.68,-22.742 -10.019,-47.791 -10.019,-75.145l0,-20.993l0.954,-60.593l0.477,-17.653l-41.031,0l0,-35.306c23.219,-5.089 39.282,-15.108 48.188,-30.058c8.906,-14.949 15.904,-33.08 20.993,-54.391l28.627,-0.477l-2.863,69.658Z" style="fill:#4a3334;"/><path d="M557.741,67.272l-72.998,255.254l-62.501,0l-31.489,-141.225c-1.59,-10.178 -3.101,-20.516 -4.533,-31.012c-1.431,-10.496 -2.942,-20.993 -4.533,-31.489c-1.908,15.268 -3.658,28.229 -5.248,38.884c-1.59,10.655 -3.022,18.687 -4.294,24.094l-30.535,140.747l-61.547,0l-74.429,-255.254l56.299,0l34.829,136.931c0.318,2.227 0.716,4.214 1.193,5.964c0.477,1.749 0.875,3.578 1.193,5.487c1.59,6.998 3.101,15.188 4.533,24.571c1.431,9.383 3.419,22.027 5.964,37.93c0.318,-1.908 0.557,-3.737 0.716,-5.487c0.159,-1.749 0.398,-3.419 0.716,-5.01c0.954,-10.496 2.147,-20.993 3.578,-31.489c1.431,-10.496 3.26,-20.993 5.487,-31.489l29.581,-137.408l65.841,0l30.058,141.225c1.272,5.725 2.386,11.769 3.34,18.13c0.954,6.361 1.749,12.882 2.386,19.562c0.318,2.863 0.636,5.805 0.954,8.827c0.318,3.022 0.636,5.964 0.954,8.827c0.318,2.227 1.59,11.133 1.908,13.359c0.318,-1.59 0.557,-3.101 0.716,-4.533c0.159,-1.431 0.398,-2.783 0.716,-4.055c0.318,-2.545 0.636,-5.089 0.954,-7.634c0.318,-2.545 0.636,-4.93 0.954,-7.157c1.272,-7.952 2.624,-15.824 4.055,-23.617c1.431,-7.793 3.101,-15.506 5.01,-23.14l35.783,-139.793l54.391,0Z" style="fill:#4a3334;"/><path d="M802.022,210.883l-168.42,0c1.272,26.4 7.952,45.882 20.039,58.446c12.087,12.564 29.74,18.846 52.959,18.846c16.858,0 30.853,-2.704 41.986,-8.111c11.133,-5.407 21.629,-13.359 31.489,-23.855c1.59,-1.908 3.26,-3.896 5.01,-5.964c1.749,-2.067 3.578,-4.214 5.487,-6.441l0.477,46.28c-12.405,13.995 -26.082,23.935 -41.031,29.819c-14.949,5.884 -31.807,8.827 -50.574,8.827c-37.851,0 -66.795,-11.61 -86.834,-34.829c-20.039,-23.219 -30.058,-56.935 -30.058,-101.147c0,-40.713 10.178,-72.759 30.535,-96.138c20.357,-23.378 48.029,-35.068 83.017,-35.068c34.034,0 60.434,10.735 79.2,32.205c18.766,21.47 28.149,51.766 28.149,90.889l0,9.542c0,2.545 -0.159,5.089 -0.477,7.634c-0.318,2.545 -0.636,5.725 -0.954,9.542l0,-0.477Zm-38.169,-40.077c-2.227,-18.448 -8.349,-33.636 -18.369,-45.564c-10.019,-11.928 -25.366,-17.892 -46.041,-17.892c-20.357,0 -36.181,5.407 -47.472,16.222c-11.292,10.814 -17.415,26.718 -18.369,47.711l130.251,-0.477Z" style="fill:#4a3334;"/></g><g><path d="M1193.252,69.658l88.742,0l0,49.619l-91.128,0l0,51.528c-0.318,8.588 -0.477,17.176 -0.477,25.764l0,25.764c0,23.219 2.704,39.282 8.111,48.188c5.407,8.906 14.949,13.359 28.627,13.359c6.361,0 12.405,-1.034 18.13,-3.101c5.725,-2.067 11.451,-5.487 17.176,-10.258c2.227,-1.908 4.533,-3.976 6.918,-6.202c2.386,-2.227 4.692,-4.612 6.918,-7.157l0,43.894c-1.908,2.227 -3.817,4.135 -5.725,5.725c-1.908,1.59 -3.817,3.181 -5.725,4.771c-7.952,6.043 -16.142,10.417 -24.571,13.121c-8.429,2.704 -17.892,4.055 -28.388,4.055c-35.942,0 -57.253,-11.371 -63.933,-34.113c-6.68,-22.742 -10.019,-47.791 -10.019,-75.145l0,-20.993l0.954,-60.593l0.477,-17.653l-41.031,0l0,-35.306c23.219,-5.089 39.282,-15.108 48.188,-30.058c8.906,-14.949 15.904,-33.08 20.993,-54.391l28.627,-0.477l-2.863,69.658Z" style="fill:#4a3334;"/><path d="M1539.634,67.272l-111.644,317.278l-54.391,0l27.195,-76.815l-96.853,-240.463l57.73,0l49.142,134.545c1.59,4.453 3.022,8.906 4.294,13.359c1.272,4.453 2.704,9.383 4.294,14.79c1.272,5.089 2.545,10.814 3.817,17.176c1.272,6.361 2.704,13.677 4.294,21.947c0.318,-1.272 0.557,-2.545 0.716,-3.817c0.159,-1.272 0.398,-2.545 0.716,-3.817c0,-1.59 0.159,-3.101 0.477,-4.533c0.318,-1.431 0.636,-2.942 0.954,-4.533c1.272,-8.588 2.863,-17.096 4.771,-25.525c1.908,-8.429 4.135,-16.619 6.68,-24.571l42.463,-135.022l55.345,0Z" style="fill:#4a3334;"/></g><path d="M846.971,268.431l-0.715,-0l0,-60.759l0.137,0l0,-146.124l54.391,0l0,16.617c0,8.27 0.159,14.949 0.477,20.039c0.318,5.089 0.954,9.701 1.908,13.836l1.908,7.634c3.817,12.723 11.053,23.06 21.709,31.012c10.655,7.952 22.822,11.928 36.499,11.928c17.812,0 29.899,-5.01 36.26,-15.029c6.361,-10.019 9.542,-28.865 9.542,-56.538l0,-29.499l55.822,0l0,42.858c0,18.766 -0.477,32.603 -1.431,41.509c-0.954,8.906 -3.181,16.858 -6.68,23.855c-0.954,1.908 -1.988,3.817 -3.101,5.725c-1.113,1.908 -2.306,3.976 -3.578,6.202c-6.043,10.178 -14.87,18.13 -26.48,23.855c-11.61,5.725 -24.253,8.588 -37.93,8.588c-25.128,0 -44.451,-5.884 -57.969,-17.653c-13.518,-11.769 -24.253,-29.104 -32.205,-52.005c0.318,5.407 0.557,10.735 0.716,15.983c0.159,5.248 0.398,10.576 0.716,15.983c0.318,5.089 0.557,10.337 0.716,15.745c0.04,1.345 0.074,2.69 0.104,4.035c-4.315,1.42 -8.451,3.199 -12.407,5.337c-11.769,6.361 -20.675,15.268 -26.718,26.718c-1.272,2.545 -2.465,5.01 -3.578,7.395c-1.113,2.386 -2.147,4.692 -3.101,6.918c-2.545,6.361 -4.135,13.757 -4.771,22.186c-0.085,1.132 -0.165,2.348 -0.239,3.649Z" style="fill:#4a3334;"/><g><path d="M1331.18,522.565c-1.272,43.576 -12.007,76.815 -32.205,99.716c-20.198,22.901 -48.586,34.352 -85.164,34.352c-37.533,0 -66.318,-11.769 -86.357,-35.306c-20.039,-23.537 -30.058,-57.412 -30.058,-101.624c0,-42.622 9.86,-74.986 29.581,-97.092c19.721,-22.106 48.665,-33.159 86.834,-33.159c43.258,0 73.634,12.246 91.128,36.737c17.494,24.492 26.241,56.776 26.241,96.853l0,-0.477Zm-49.619,1.431c0,-22.583 -4.374,-42.065 -13.121,-58.446c-8.747,-16.381 -26.321,-24.571 -52.721,-24.571c-23.219,0 -40.475,7.077 -51.766,21.231c-11.292,14.154 -16.937,35.545 -16.937,64.171c0,27.036 5.725,48.029 17.176,62.979c11.451,14.949 27.831,22.424 49.142,22.424c21.947,0 38.646,-7.316 50.097,-21.947c11.451,-14.631 17.494,-36.419 18.13,-65.364l0,-0.477Z" style="fill:#4a3334;"/><path d="M1588.342,395.177l0,255.254l-52.005,0c0.318,-2.863 0.557,-5.805 0.716,-8.827c0.159,-3.022 0.239,-6.123 0.239,-9.304c0.636,-6.361 1.113,-12.643 1.431,-18.846c0.318,-6.202 0.477,-12.325 0.477,-18.369c-7.952,19.402 -18.528,34.511 -31.728,45.325c-13.2,10.814 -30.774,16.222 -52.721,16.222c-13.995,0 -26.957,-2.863 -38.884,-8.588c-11.928,-5.725 -20.913,-13.518 -26.957,-23.378c-1.272,-2.227 -2.465,-4.294 -3.578,-6.202c-1.113,-1.908 -2.147,-3.817 -3.101,-5.725c-3.817,-8.27 -6.282,-18.13 -7.395,-29.581c-1.113,-11.451 -1.67,-30.376 -1.67,-56.776l0,-131.205l53.913,0l0,129.774c0,18.448 0.318,31.33 0.954,38.646c0.636,7.316 1.908,13.677 3.817,19.084c0,0.318 0.08,0.716 0.239,1.193c0.159,0.477 0.398,0.875 0.716,1.193c2.863,7.316 7.952,13.121 15.268,17.415c7.316,4.294 15.904,6.441 25.764,6.441c12.087,0 22.583,-2.704 31.489,-8.111c8.906,-5.407 15.427,-13.041 19.562,-22.901c0.954,-2.227 1.829,-4.294 2.624,-6.202c0.795,-1.908 1.511,-3.658 2.147,-5.248c1.908,-6.043 3.101,-13.121 3.578,-21.231c0.477,-8.111 0.716,-21.231 0.716,-39.362l0,-110.689l54.391,0Z" style="fill:#4a3334;"/><path d="M1640.347,650.431l0,-255.254l52.482,0l-3.817,69.181c4.453,-19.084 11.53,-36.34 21.231,-51.766c9.701,-15.427 26.002,-23.14 48.904,-23.14c6.998,0 13.359,1.113 19.084,3.34c5.725,2.227 11.292,5.566 16.699,10.019c0.954,0.636 1.749,1.272 2.386,1.908c0.636,0.636 1.272,1.272 1.908,1.908l-2.386,55.822c-5.089,-4.135 -9.542,-7.475 -13.359,-10.019c-3.817,-2.545 -7.475,-4.453 -10.974,-5.725c-2.545,-0.954 -5.169,-1.59 -7.872,-1.908c-2.704,-0.318 -5.646,-0.477 -8.827,-0.477c-21.629,0 -36.578,7.713 -44.848,23.14c-8.27,15.427 -13.359,32.364 -15.268,50.812c-0.636,7.634 -1.034,15.188 -1.193,22.663c-0.159,7.475 -0.239,14.393 -0.239,20.754l0,88.742l-53.913,0Z" style="fill:#4a3334;"/><path d="M1988.637,415.693l0,54.391c-2.227,-1.908 -4.374,-3.817 -6.441,-5.725c-2.067,-1.908 -4.055,-3.658 -5.964,-5.248c-9.224,-7.952 -18.607,-13.677 -28.149,-17.176c-9.542,-3.499 -19.721,-5.248 -30.535,-5.248c-14.313,0 -25.923,3.101 -34.829,9.304c-8.906,6.202 -13.359,14.393 -13.359,24.571c0,10.496 4.612,17.812 13.836,21.947c9.224,4.135 20.039,7.634 32.443,10.496c2.863,0.636 5.805,1.272 8.827,1.908c3.022,0.636 5.964,1.431 8.827,2.386c15.904,3.817 30.535,10.258 43.894,19.323c13.359,9.065 20.039,25.366 20.039,48.904c0,24.174 -8.349,43.735 -25.048,58.685c-16.699,14.949 -38.566,22.424 -65.603,22.424c-17.176,0 -31.807,-2.147 -43.894,-6.441c-12.087,-4.294 -23.696,-11.371 -34.829,-21.231l0,-49.619c3.181,3.817 6.361,7.157 9.542,10.019c3.181,2.863 6.361,5.407 9.542,7.634c8.27,6.361 16.619,10.894 25.048,13.598c8.429,2.704 17.574,4.055 27.434,4.055c14.949,0 26.718,-3.101 35.306,-9.304c8.588,-6.202 12.882,-14.393 12.882,-24.571c0,-8.906 -1.908,-15.506 -5.725,-19.8c-3.817,-4.294 -12.405,-8.19 -25.764,-11.689c-3.499,-0.954 -7.554,-1.988 -12.166,-3.101c-4.612,-1.113 -9.622,-2.147 -15.029,-3.101c-23.219,-4.771 -40.475,-13.041 -51.766,-24.81c-11.292,-11.769 -16.937,-27.513 -16.937,-47.234c0,-24.492 8.349,-44.212 25.048,-59.162c16.699,-14.949 38.725,-22.424 66.08,-22.424c11.769,0 22.186,1.034 31.251,3.101c9.065,2.067 17.892,5.487 26.48,10.258c3.181,1.908 6.361,3.976 9.542,6.202c3.181,2.227 6.521,4.612 10.019,7.157l0,-0.477Z" style="fill:#4a3334;"/></g><g><path d="M1063.642,622.479l0,-330.637l-53.913,0l0,86.357c0,3.499 0.08,6.759 0.239,9.781c0.159,3.022 0.239,5.964 0.239,8.827c0,3.181 0.08,6.282 0.239,9.304c0.159,3.022 0.239,6.123 0.239,9.304c-8.906,-16.858 -20.357,-30.137 -34.352,-39.839c-13.995,-9.701 -30.694,-14.552 -50.097,-14.552c-14.949,0 -28.309,3.181 -40.077,9.542c-11.769,6.361 -20.675,15.268 -26.718,26.718c-1.272,2.545 -2.465,5.01 -3.578,7.395c-1.113,2.386 -2.147,4.692 -3.101,6.918c-2.545,6.361 -4.135,13.757 -4.771,22.186c-0.636,8.429 -0.954,21.549 -0.954,39.362l0,149.335l53.913,0l0,-141.702c0,-26.4 3.419,-44.371 10.258,-53.913c6.839,-9.542 19.8,-14.313 38.884,-14.313c9.86,0 18.846,2.067 26.957,6.202c8.111,4.135 14.87,10.019 20.277,17.653c0.954,1.59 1.908,3.022 2.863,4.294c0.954,1.272 1.749,2.704 2.386,4.294c2.863,5.407 4.771,11.371 5.725,17.892c0.954,6.521 1.431,15.665 1.431,27.434l0,132.159l53.913,0Z" style="fill:#4a3334;"/><rect x="1009.256" y="553.672" width="54.747" height="90.759" style="fill:#4a3334;"/><rect x="1009.256" y="553.672" width="54.747" height="96.759" style="fill:#4a3334;"/><path d="M1009.256,276.753c4.604,-1.337 9.065,-3.071 13.383,-5.2c11.61,-5.725 20.436,-13.677 26.48,-23.855c1.272,-2.227 2.465,-4.294 3.578,-6.202c1.113,-1.908 2.147,-3.817 3.101,-5.725c3.499,-6.998 5.725,-14.949 6.68,-23.855c0.228,-2.132 0.429,-4.546 0.603,-7.242l0.922,0l0,139.759l-54.747,0l0,-67.678Z" style="fill:#4a3334;"/><rect x="847.256" y="559.672" width="53.747" height="90.759" style="fill:#4a3334;"/></g></g></svg>